<?xml version="1.0" standalone="no"?><!DOCTYPE svg PUBLIC "-//W3C//DTD SVG 1.1//EN" "http://www.w3.org/Graphics/SVG/1.1/DTD/svg11.dtd"><svg t="1563851361258" class="icon" viewBox="0 0 1024 1024" version="1.1" xmlns="http://www.w3.org/2000/svg" p-id="2610" xmlns:xlink="http://www.w3.org/1999/xlink" width="200" height="200"><defs><style type="text/css"></style></defs><path d="M870.4 546.133333h-716.8c-10.24 0-17.066667-6.826667-17.066667-17.066666v-238.933334c0-3.413333 3.413333-10.24 3.413334-13.653333l273.066666-273.066667c3.413333 0 10.24-3.413333 13.653334-3.413333h443.733333c10.24 0 17.066667 6.826667 17.066667 17.066667v512c0 10.24-6.826667 17.066667-17.066667 17.066666zM170.666667 512h682.666666V34.133333H433.493333L170.666667 296.96V512z" fill="#ff8c00" p-id="2611"></path><path d="M426.666667 307.2h-273.066667c-10.24 0-17.066667-6.826667-17.066667-17.066667s6.826667-17.066667 17.066667-17.066666H409.6V17.066667c0-10.24 6.826667-17.066667 17.066667-17.066667s17.066667 6.826667 17.066666 17.066667v273.066666c0 10.24-6.826667 17.066667-17.066666 17.066667zM870.4 1024h-716.8c-10.24 0-17.066667-6.826667-17.066667-17.066667v-409.6c0-10.24 6.826667-17.066667 17.066667-17.066666h716.8c10.24 0 17.066667 6.826667 17.066667 17.066666v409.6c0 10.24-6.826667 17.066667-17.066667 17.066667zM170.666667 989.866667h682.666666V614.4H170.666667v375.466667zM665.6 477.866667h-273.066667c-6.826667 0-13.653333-3.413333-17.066666-10.24s0-13.653333 3.413333-17.066667l136.533333-136.533333c6.826667-6.826667 17.066667-6.826667 23.893334 0l136.533333 136.533333c3.413333 3.413333 6.826667 13.653333 3.413333 17.066667s-6.826667 10.24-13.653333 10.24z m-232.106667-34.133334h191.146667l-95.573333-95.573333-95.573334 95.573333z" fill="#ff8c00" p-id="2612"></path><path d="M529.066667 819.2c-3.413333 0-10.24 0-13.653334-3.413333l-136.533333-136.533334c-3.413333-6.826667-3.413333-13.653333-3.413333-20.48s10.24-10.24 17.066666-10.24h273.066667c6.826667 0 13.653333 3.413333 17.066667 10.24s0 13.653333-3.413334 17.066667l-136.533333 136.533333c-3.413333 6.826667-10.24 6.826667-13.653333 6.826667z m-95.573334-136.533333l95.573334 95.573333 95.573333-95.573333h-191.146667z" fill="#ff8c00" p-id="2613"></path></svg>