<?xml version="1.0" standalone="no"?><!DOCTYPE svg PUBLIC "-//W3C//DTD SVG 1.1//EN" "http://www.w3.org/Graphics/SVG/1.1/DTD/svg11.dtd"><svg t="1563851630010" class="icon" viewBox="0 0 1025 1024" version="1.1" xmlns="http://www.w3.org/2000/svg" p-id="5006" xmlns:xlink="http://www.w3.org/1999/xlink" width="200.1953125" height="200"><defs><style type="text/css"></style></defs><path d="M480 921.6c-51.2-51.2-51.2-128 0-179.2s128-51.2 179.2 0l38.4 38.4 121.6-134.4c-44.8-25.6-83.2-25.6-128-25.6-44.8-6.4-89.6-19.2-89.6-57.6s51.2-25.6 89.6-96c0 0 172.8-467.2-185.6-467.2-352 0-179.2 467.2-179.2 467.2 38.4 64 89.6 51.2 89.6 96s-44.8 44.8-89.6 51.2c-70.4 6.4-134.4-6.4-198.4 108.8-38.4 70.4-57.6 300.8-57.6 300.8l512 0-102.4-102.4z" p-id="5007" fill="#00b294"></path><path d="M819.2 1024l134.4 0c0 0-6.4-57.6-12.8-128l-121.6 128z" p-id="5008" fill="#00b294"></path><path d="M704 1024c-19.2 0-32-6.4-44.8-19.2l-128-128c-25.6-25.6-25.6-64 0-89.6s64-25.6 89.6 0l83.2 83.2 211.2-230.4c25.6-25.6 64-25.6 89.6-6.4 25.6 25.6 25.6 64 6.4 89.6l-256 275.2c-19.2 19.2-32 25.6-51.2 25.6 0 0 0 0 0 0z" p-id="5009" fill="#00b294"></path></svg>