<?xml version="1.0" standalone="no"?><!DOCTYPE svg PUBLIC "-//W3C//DTD SVG 1.1//EN" "http://www.w3.org/Graphics/SVG/1.1/DTD/svg11.dtd"><svg t="1563851427808" class="icon" viewBox="0 0 1024 1024" version="1.1" xmlns="http://www.w3.org/2000/svg" p-id="4155" xmlns:xlink="http://www.w3.org/1999/xlink" width="200" height="200"><defs><style type="text/css"></style></defs><path d="M519.893333 537.173333a229.333333 229.333333 0 1 1 229.333334-229.333333 229.546667 229.546667 0 0 1-229.333334 229.333333z m0-437.333333a208 208 0 1 0 208 208 208.213333 208.213333 0 0 0-208-208z" fill="#6b69d6" p-id="4156"></path><path d="M659.413333 874.666667H146.133333v-13.013334-4.48c0-188.586667 169.386667-341.333333 377.813334-341.333333v21.333333c-194.986667 0-353.92 141.866667-356.266667 317.013334h491.733333z" fill="#6b69d6" p-id="4157"></path><path d="M738.346667 880.64l-15.146667-15.146667L841.386667 746.666667H519.893333v-21.333334h347.093334a10.666667 10.666667 0 0 1 7.466666 18.133334zM866.986667 693.333333H519.893333a10.666667 10.666667 0 0 1-7.466666-18.133333l136.32-136.32 15.146666 15.146667-118.186666 117.973333h321.28z" fill="#6b69d6" p-id="4158"></path></svg>