<?xml version="1.0" standalone="no"?><!DOCTYPE svg PUBLIC "-//W3C//DTD SVG 1.1//EN" "http://www.w3.org/Graphics/SVG/1.1/DTD/svg11.dtd"><svg t="1563971131632" class="icon" viewBox="0 0 1024 1024" version="1.1" xmlns="http://www.w3.org/2000/svg" p-id="589" xmlns:xlink="http://www.w3.org/1999/xlink" width="200" height="200"><defs><style type="text/css"></style></defs><path d="M458.24 376.32 138.24 376.32c-15.36 0-25.6 10.24-25.6 25.6 0 15.36 10.24 25.6 25.6 25.6l320 0c15.36 0 25.6-10.24 25.6-25.6C483.84 389.12 471.04 376.32 458.24 376.32z" p-id="590" fill="#00b294"></path><path d="M458.24 642.56 138.24 642.56c-15.36 0-25.6 10.24-25.6 25.6s10.24 25.6 25.6 25.6l320 0c15.36 0 25.6-10.24 25.6-25.6S471.04 642.56 458.24 642.56z" p-id="591" fill="#00b294"></path><path d="M732.16 706.56c-15.36 0-25.6 10.24-25.6 25.6 0 0 0 0 0 2.56l0 0 0 99.84c0 15.36-12.8 30.72-30.72 30.72L81.92 865.28c-15.36 0-30.72-12.8-30.72-30.72L51.2 189.44c0-15.36 12.8-30.72 30.72-30.72l596.48 0c15.36 0 30.72 12.8 30.72 30.72l0 115.2c0 15.36 10.24 25.6 25.6 25.6s25.6-10.24 25.6-25.6L760.32 189.44c0-46.08-35.84-81.92-81.92-81.92L81.92 107.52C35.84 107.52 0 145.92 0 189.44l0 645.12c0 46.08 35.84 81.92 81.92 81.92l596.48 0c46.08 0 81.92-35.84 81.92-81.92l0-99.84 0 0c0 0 0 0 0-2.56C757.76 719.36 747.52 706.56 732.16 706.56z" p-id="592" fill="#00b294"></path><path d="M1016.32 340.48c-10.24-10.24-25.6-10.24-35.84 0l-245.76 245.76-138.24-130.56c-10.24-10.24-25.6-10.24-35.84 2.56-10.24 10.24-10.24 25.6 2.56 35.84l156.16 145.92c5.12 5.12 10.24 7.68 17.92 7.68 7.68 0 12.8-2.56 17.92-7.68l261.12-263.68C1026.56 366.08 1026.56 350.72 1016.32 340.48z" p-id="593" fill="#00b294"></path></svg>