<?xml version="1.0" standalone="no"?><!DOCTYPE svg PUBLIC "-//W3C//DTD SVG 1.1//EN" "http://www.w3.org/Graphics/SVG/1.1/DTD/svg11.dtd"><svg t="1564127240605" class="icon" viewBox="0 0 1024 1024" version="1.1" xmlns="http://www.w3.org/2000/svg" p-id="1493" xmlns:xlink="http://www.w3.org/1999/xlink" width="200" height="200"><defs><style type="text/css"></style></defs><path d="M256 955.733333H85.333333a17.066667 17.066667 0 0 1-17.066666-17.066666V682.666667a17.066667 17.066667 0 0 1 17.066666-17.066667h384c16.605867 0 30.72 5.700267 41.949867 16.964267A58.589867 58.589867 0 0 1 529.066667 725.333333V750.933333h196.266666c16.605867 0 30.72 5.700267 41.949867 16.964267A58.589867 58.589867 0 0 1 785.066667 810.666667V853.333333a17.066667 17.066667 0 0 1-17.066667 17.066667H273.066667v68.266667a17.066667 17.066667 0 0 1-17.066667 17.066666z m-153.6-34.133333h136.533333V699.733333H102.4v221.866667z m170.666667-85.333333h477.866666v-25.6c0-7.406933-2.491733-13.329067-7.799466-18.653867-4.727467-4.744533-10.376533-6.946133-17.800534-6.946133H426.666667a17.066667 17.066667 0 1 1 0-34.133334h68.266666v-25.6a24.917333 24.917333 0 0 0-7.799466-18.653866c-4.744533-4.744533-10.3936-6.946133-17.800534-6.946134H273.066667v136.533334z m580.266666-221.866667H597.333333c-66.030933 0-102.4-36.369067-102.4-102.4V256v-0.0512a16.861867 16.861867 0 0 1 5.000534-12.014933l170.666666-170.666667A17.220267 17.220267 0 0 1 682.615467 68.266667H853.333333c66.030933 0 102.4 36.369067 102.4 102.4v341.333333c0 66.030933-36.369067 102.4-102.4 102.4zM529.066667 273.066667v238.933333c0 47.223467 21.0432 68.266667 68.266666 68.266667h256c47.223467 0 68.266667-21.0432 68.266667-68.266667V170.666667c0-47.223467-21.0432-68.266667-68.266667-68.266667h-153.6v68.266667c0 66.030933-36.369067 102.4-102.4 102.4h-68.266666z m24.132266-34.133334H597.333333c47.223467 0 68.266667-21.0432 68.266667-68.266666V126.532267L553.198933 238.933333z" p-id="1494" fill="#00b294"></path></svg>