<svg width="120" height="120" viewBox="0 0 120 120" fill="none" xmlns="http://www.w3.org/2000/svg">
<g clip-path="url(#clip0)">
<g filter="url(#filter0_d)">
<circle cx="60" cy="60" r="40" fill="#DFDFDF"/>
</g>
<g clip-path="url(#clip1)">
<path d="M54.8607 76.0005C54.444 76.0007 54.0334 75.9001 53.6634 75.7072C52.7783 75.2501 52.2293 74.3408 52.2293 73.3338V69.3464H46.9016C45.4463 69.3464 44.2635 68.1477 44.2635 66.6731V55.8289C44.2635 55.0916 44.8536 54.4942 45.5812 54.4942C46.3089 54.4942 46.8989 55.0916 46.8989 55.8289V66.6726L54.8647 66.6766V73.3338L73.3825 59.9966L54.8567 46.6714L54.8647 53.326H49.5251C48.7974 53.326 48.2074 52.7273 48.2074 51.99C48.2074 51.2527 48.7974 50.6553 49.5251 50.6553H52.2293V46.6674C52.2293 45.6607 52.7783 44.7514 53.6634 44.294C54.0942 44.0695 54.5787 43.9706 55.0623 44.0085C55.546 44.0464 56.0094 44.2197 56.4006 44.5087L74.9264 57.8419C75.2635 58.0902 75.5378 58.415 75.727 58.7901C75.9162 59.1651 76.0149 59.5799 76.0153 60.0006C76.0153 60.8526 75.6078 61.6606 74.9264 62.1593L56.4006 75.4938C55.9535 75.8227 55.4143 76.0001 54.8607 76.0005" fill="#6FCF97"/>
</g>
</g>
<defs>
<filter id="filter0_d" x="0" y="4" width="120" height="120" filterUnits="userSpaceOnUse" color-interpolation-filters="sRGB">
<feFlood flood-opacity="0" result="BackgroundImageFix"/>
<feColorMatrix in="SourceAlpha" type="matrix" values="0 0 0 0 0 0 0 0 0 0 0 0 0 0 0 0 0 0 127 0"/>
<feOffset dy="4"/>
<feGaussianBlur stdDeviation="10"/>
<feColorMatrix type="matrix" values="0 0 0 0 0 0 0 0 0 0 0 0 0 0 0 0 0 0 0.33 0"/>
<feBlend mode="normal" in2="BackgroundImageFix" result="effect1_dropShadow"/>
<feBlend mode="normal" in="SourceGraphic" in2="effect1_dropShadow" result="shape"/>
</filter>
<clipPath id="clip0">
<rect width="120" height="120" fill="white"/>
</clipPath>
<clipPath id="clip1">
<rect width="32" height="32" fill="white" transform="translate(44 44)"/>
</clipPath>
</defs>
</svg>
