<svg width="400" height="250" viewBox="0 0 400 250" fill="none" xmlns="http://www.w3.org/2000/svg">
<rect width="400" height="250" fill="#F2F2F2"/>
<path d="M83.9688 44.4062L82 42.6562L71.5 54.9062L61 42.6562L59.0312 44.4062L68.6562 55.5625H61.6562V58.1875H70.1875V63.4375H61.6562V66.0625H70.1875V77H72.8125V66.0625H81.3438V63.4375H72.8125V58.1875H81.3438V55.5625H74.3438L83.9688 44.4062Z" fill="black" fill-opacity="0.65"/>
<path d="M63.8926 91.6484H62.9014V93.4805H63.1133C63.4915 93.4805 63.9108 93.4531 64.3711 93.3984C64.3164 93.8724 64.2891 94.2689 64.2891 94.5879V97.1787C64.6126 96.4678 64.7653 95.5996 64.7471 94.5742L65.4512 94.6973C65.5788 94.7155 65.6426 94.7406 65.6426 94.7725C65.6608 94.7998 65.6198 94.859 65.5195 94.9502C65.4421 94.9958 65.3896 95.1462 65.3623 95.4014C65.2438 96.249 65.0775 96.9759 64.8633 97.582C64.722 97.4727 64.5306 97.3883 64.2891 97.3291V100.918C64.2891 101.196 64.3118 101.588 64.3574 102.094C65.2826 100.645 65.7451 98.637 65.7451 96.0713V91.9834C65.7451 91.5459 65.7155 91.056 65.6562 90.5137L66.627 90.6709C66.7546 90.6891 66.8184 90.721 66.8184 90.7666C66.8275 90.8031 66.7773 90.8783 66.668 90.9922C66.5449 91.0469 66.488 91.3773 66.4971 91.9834V94.9092L66.8867 94.7109C67.2148 95.5176 67.4769 96.2194 67.6729 96.8164V92.5029C67.6729 92.0244 67.6455 91.5072 67.5908 90.9512L68.6094 91.1152C68.7324 91.1335 68.8031 91.1768 68.8213 91.2451C68.8213 91.3089 68.7666 91.3682 68.6572 91.4229C68.4977 91.4684 68.4225 91.8285 68.4316 92.5029V94.7725L68.876 94.5469C69.2132 95.4401 69.4889 96.2513 69.7031 96.9805L69.1016 97.2471C68.9603 96.6683 68.737 95.946 68.4316 95.0801V101.267C68.4316 101.622 68.459 102 68.5137 102.401H67.5908C67.6455 101.991 67.6729 101.613 67.6729 101.267V96.8848L67.1123 97.1787C66.9346 96.486 66.7204 95.8639 66.4697 95.3125C66.5153 98.8353 65.9411 101.417 64.7471 103.058C64.4782 102.907 64.1797 102.796 63.8516 102.723C63.9928 102.6 64.1227 102.445 64.2412 102.258H63.4756C63.512 102.044 63.5303 101.852 63.5303 101.684H60.1396C60.1396 101.975 60.1693 102.358 60.2285 102.832H59.2988C59.3581 102.322 59.3877 101.845 59.3877 101.403V94.7998C59.3877 94.4443 59.3581 93.9772 59.2988 93.3984C59.8411 93.4531 60.3083 93.4805 60.7002 93.4805H60.9395V91.6484H60.0166C59.652 91.6484 59.2738 91.6758 58.8818 91.7305V90.917C59.3193 90.9762 59.6976 91.0059 60.0166 91.0059H63.8789C64.2344 91.0059 64.6126 90.9762 65.0137 90.917V91.7305C64.6126 91.6758 64.2389 91.6484 63.8926 91.6484ZM63.5303 99.5166H60.1396V101.068H63.5303V99.5166ZM62.1973 96.3926V94.123H61.5957C61.5137 95.554 61.2402 96.7367 60.7754 97.6709C60.5749 97.5843 60.363 97.5228 60.1396 97.4863V98.874H63.5303V97.3906C63.3662 97.4225 63.2204 97.4385 63.0928 97.4385C62.473 97.4385 62.1745 97.0898 62.1973 96.3926ZM60.9395 94.123H60.1396V97.124C60.5999 96.4495 60.8665 95.4492 60.9395 94.123ZM61.6367 93.4805H62.1973V91.6484H61.6367V93.4805ZM63.5303 96.7002V94.123H62.9014V96.2285C62.8649 96.5703 62.9857 96.7412 63.2637 96.7412C63.3366 96.7412 63.4255 96.7275 63.5303 96.7002ZM69.7031 90.2061L70.7285 90.377C70.8743 90.3952 70.9427 90.4271 70.9336 90.4727C70.9427 90.5091 70.8789 90.5934 70.7422 90.7256C70.5918 90.7712 70.5257 91.1449 70.5439 91.8467V101.684C70.5439 102.126 70.5713 102.527 70.626 102.887H69.7031C69.7578 102.495 69.7852 102.094 69.7852 101.684V91.8467C69.7852 91.4137 69.7578 90.8669 69.7031 90.2061ZM72.4785 95.5654C75.1081 94.7907 77.0859 93.0794 78.4121 90.4316L79.4033 90.7939C79.5719 90.8486 79.6426 90.8942 79.6152 90.9307C79.6243 90.9626 79.5309 91.0332 79.335 91.1426C80.6885 93.1022 82.7552 94.4648 85.5352 95.2305C85.1068 95.513 84.8288 95.8548 84.7012 96.2559C83.7168 95.7591 82.8145 95.2214 81.9941 94.6426V95.4287C81.5931 95.374 81.2103 95.3467 80.8457 95.3467H79.2939V97.3633H82.5273C82.9557 97.3633 83.3385 97.3337 83.6758 97.2744V98.1426C83.2565 98.0879 82.8828 98.0605 82.5547 98.0605H79.2939V101.786H83.5254C83.8854 101.786 84.2614 101.757 84.6533 101.697V102.593C84.3024 102.538 83.931 102.511 83.5391 102.511H74.5088C74.2354 102.511 74.0348 102.515 73.9072 102.524C73.7477 102.534 73.57 102.556 73.374 102.593V101.697C73.7477 101.757 74.126 101.786 74.5088 101.786H78.5078V98.0605H75.459C75.0488 98.0605 74.6751 98.0879 74.3379 98.1426V97.2744C74.6751 97.3337 75.0488 97.3633 75.459 97.3633H78.5078V95.3467H77.1133C76.7487 95.3467 76.3454 95.374 75.9033 95.4287V94.7246C75.1605 95.3809 74.3037 95.9642 73.333 96.4746C73.2191 96.1146 72.9342 95.8115 72.4785 95.5654ZM76.1426 94.5742C76.4616 94.6198 76.7852 94.6426 77.1133 94.6426H80.832C81.2057 94.6426 81.5475 94.6198 81.8574 94.5742C80.5677 93.6491 79.5492 92.6602 78.8018 91.6074C78.0179 92.7057 77.1315 93.6947 76.1426 94.5742ZM76.0332 98.5186C76.7305 99.307 77.3275 100.059 77.8242 100.774L77.0928 101.267C76.5368 100.428 75.9443 99.6989 75.3154 99.0791L76.0332 98.5186ZM80.2441 100.904C80.9186 100.157 81.502 99.3252 81.9941 98.4092L82.8076 98.9971C82.8896 99.0609 82.9307 99.111 82.9307 99.1475C82.9307 99.1794 82.8896 99.2044 82.8076 99.2227C82.5479 99.3047 82.3656 99.4209 82.2607 99.5713C82.0374 99.9268 81.6136 100.537 80.9893 101.403C80.7751 101.171 80.5267 101.005 80.2441 100.904Z" fill="black" fill-opacity="0.7"/>
<path d="M59.7051 170.346H57.6543C57.2598 170.346 56.8633 170.414 56.4648 170.551L56.043 169.883C56.3008 169.77 56.4922 169.617 56.6172 169.426C57.0586 168.746 57.4043 167.998 57.6543 167.182L58.5156 167.516C58.5977 167.547 58.6328 167.578 58.6211 167.609C58.6211 167.637 58.5703 167.674 58.4688 167.721C58.3086 167.791 58.1719 167.943 58.0586 168.178C57.8359 168.674 57.5762 169.197 57.2793 169.748H59.8691C60.084 168.814 60.1914 167.988 60.1914 167.27C60.1914 167.102 60.1855 166.939 60.1738 166.783L61.1348 166.93C61.2832 166.945 61.3496 166.969 61.334 167C61.3418 167.023 61.2578 167.111 61.082 167.264C60.9727 167.334 60.9004 167.543 60.8652 167.891C60.7559 168.695 60.6602 169.314 60.5781 169.748H65.0781C65.4141 169.748 65.7305 169.725 66.0273 169.678V170.422C65.7148 170.371 65.3984 170.346 65.0781 170.346H60.4375C60.3086 170.795 60.1484 171.287 59.957 171.822H63.4258C63.7852 171.822 64.1328 171.799 64.4688 171.752C63.9102 173.119 63.1895 174.268 62.3066 175.197C63.6426 176.084 65.0117 176.559 66.4141 176.621C66.1641 176.887 65.9473 177.191 65.7637 177.535C64.3809 177.199 63.0449 176.576 61.7559 175.666C60.4512 176.584 59.0664 177.268 57.6016 177.717C57.4414 177.443 57.2266 177.18 56.957 176.926C58.6758 176.652 60.0996 176.072 61.2285 175.186C60.6504 174.6 60.1426 173.936 59.7051 173.193L60.4375 172.795C60.5898 173.443 61.0293 174.088 61.7559 174.729C62.4512 174.104 62.9961 173.328 63.3906 172.402H59.6934C58.9551 173.953 57.8555 175.293 56.3945 176.422C56.1445 176.219 55.8594 176.039 55.5391 175.883C57.5859 174.871 58.9746 173.025 59.7051 170.346ZM62.3066 167.469L62.7871 166.953C63.4824 167.551 64.1426 168.146 64.7676 168.74L64.2871 169.268C63.7207 168.678 63.0605 168.078 62.3066 167.469ZM67.5508 173.504C69.2539 172.633 70.5469 171.213 71.4297 169.244H68.9336C68.6602 169.244 68.3125 169.268 67.8906 169.314V168.57C68.3047 168.621 68.6484 168.646 68.9219 168.646H71.6699C72.0137 167.779 72.1973 167.102 72.2207 166.613L73.2051 166.842C73.2754 166.857 73.3105 166.895 73.3105 166.953C73.3027 167 73.2598 167.047 73.1816 167.094C72.9824 167.191 72.8379 167.389 72.748 167.686C72.709 167.822 72.6445 168.014 72.5547 168.26C72.5 168.428 72.457 168.557 72.4258 168.646H77.2246C77.584 168.639 77.9199 168.613 78.2324 168.57V169.314C77.8965 169.275 77.5605 169.252 77.2246 169.244H72.1973C71.7949 170.092 71.3906 170.816 70.9844 171.418H73.2988V171.066C73.291 170.66 73.2676 170.266 73.2285 169.883L74.1895 170C74.2363 170.035 74.2598 170.072 74.2598 170.111C74.2598 170.162 74.2246 170.217 74.1543 170.275C74.0332 170.373 73.9727 170.648 73.9727 171.102V171.418H76.252C76.5801 171.41 76.916 171.385 77.2598 171.342C77.2207 171.686 77.1973 172.014 77.1895 172.326V174.811C77.2129 175.49 77.1035 175.895 76.8613 176.023C76.6855 176.199 76.0898 176.32 75.0742 176.387C75.0898 176.059 74.9941 175.738 74.7871 175.426C75.2559 175.477 75.6113 175.502 75.8535 175.502C76.0332 175.502 76.1621 175.488 76.2402 175.461C76.4395 175.422 76.5312 175.238 76.5156 174.91V172.016H73.9727V176.756C73.9805 177.076 74.0039 177.428 74.043 177.811H73.2285C73.2676 177.436 73.291 177.088 73.2988 176.768V172.016H70.9844V175.496C70.9922 175.816 71.0156 176.145 71.0547 176.48H70.2402C70.2793 176.129 70.3027 175.801 70.3105 175.496V172.244C69.7754 172.877 69.1367 173.5 68.3945 174.113C68.207 173.906 67.9258 173.703 67.5508 173.504ZM85.6094 171.213H80.9102C80.6289 171.221 80.3008 171.244 79.9258 171.283V170.539C80.3008 170.578 80.6289 170.602 80.9102 170.609H84.5781V169.016H82.457C82.207 169.023 81.8828 169.047 81.4844 169.086V168.342C81.875 168.385 82.1992 168.41 82.457 168.418H84.5781V167.65C84.5703 167.361 84.5469 167.016 84.5078 166.613L85.3867 166.736C85.4492 166.744 85.4805 166.773 85.4805 166.824C85.4805 166.871 85.4492 166.922 85.3867 166.977C85.3047 167 85.2676 167.268 85.2754 167.779V168.418H87.3496C87.6699 168.402 87.9863 168.377 88.2988 168.342V169.004C88.6504 168.668 88.9707 168.264 89.2598 167.791L90.0391 168.559C90.0898 168.609 90.1152 168.65 90.1152 168.682C90.1152 168.689 90.1133 168.697 90.1094 168.705C90.1016 168.736 90.0469 168.756 89.9453 168.764C89.7188 168.771 89.4629 168.904 89.1777 169.162C88.6895 169.592 88.1289 170.074 87.4961 170.609H89.5234C89.7969 170.602 90.1172 170.578 90.4844 170.539V171.283C90.1172 171.244 89.7969 171.221 89.5234 171.213H86.834C86.0254 171.795 85.2656 172.283 84.5547 172.678H87.6309C87.9668 172.67 88.3223 172.645 88.6973 172.602C88.6582 172.98 88.6328 173.316 88.6211 173.609V176.721C88.6328 177.002 88.6582 177.361 88.6973 177.799H87.8828C87.9219 177.494 87.9453 177.234 87.9531 177.02H83.4766C83.4844 177.25 83.5078 177.533 83.5469 177.869H82.7207C82.7598 177.486 82.7832 177.135 82.791 176.814V173.586C81.959 173.98 81.043 174.373 80.043 174.764C79.9219 174.443 79.7148 174.16 79.4219 173.914C81.4297 173.562 83.4922 172.662 85.6094 171.213ZM83.4648 175.098V176.469H87.9531V175.098H83.4648ZM83.4648 173.252V174.523H87.9531V173.252H83.4648ZM85.2754 169.016V170.609H86.3418C87.0215 170.141 87.6465 169.633 88.2168 169.086C87.959 169.055 87.666 169.031 87.3379 169.016H85.2754Z" fill="black" fill-opacity="0.7"/>
<path d="M72.5 149.75C68.5092 149.75 65.2632 146.666 65.2632 142.875C65.2632 139.084 68.5092 136 72.5 136C76.4908 136 79.7368 139.084 79.7368 142.875C79.7368 146.666 76.4908 149.75 72.5 149.75ZM72.5 137.25C69.2355 137.25 66.5789 139.774 66.5789 142.875C66.5789 145.976 69.2355 148.5 72.5 148.5C75.7645 148.5 78.4211 145.976 78.4211 142.875C78.4211 139.774 75.7645 137.25 72.5 137.25ZM83.0263 161H61.9737C60.8855 161 60 160.159 60 159.125C60 159.04 60.0184 157.019 61.6118 155C62.5395 153.825 63.8092 152.891 65.3868 152.226C67.3132 151.413 69.7066 151 72.5 151C75.2934 151 77.6868 151.413 79.6132 152.226C81.1908 152.892 82.4605 153.825 83.3882 155C84.9816 157.019 85 159.04 85 159.125C85 160.159 84.1145 161 83.0263 161ZM72.5 152.25C67.9118 152.25 64.5263 153.441 62.7092 155.695C61.3474 157.384 61.3171 159.11 61.3158 159.128C61.3165 159.293 61.3861 159.451 61.5094 159.568C61.6327 159.684 61.7997 159.75 61.9737 159.75H83.0263C83.2008 159.75 83.3681 159.684 83.4915 159.567C83.6149 159.45 83.6842 159.291 83.6842 159.125C83.6842 159.11 83.6539 157.384 82.2908 155.695C80.4724 153.441 77.0868 152.25 72.5 152.25Z" fill="black" fill-opacity="0.65"/>
<path d="M141.949 170.012C143.316 169.211 144.447 168.092 145.342 166.654L146.174 166.977C146.283 167.016 146.334 167.057 146.326 167.1C146.318 167.139 146.256 167.178 146.139 167.217C146.01 167.248 145.904 167.312 145.822 167.41C145.705 167.535 145.582 167.666 145.453 167.803H148.354C148.674 167.803 149.062 167.779 149.52 167.732C148.969 168.42 148.369 169.191 147.721 170.047H149.654C150.076 170.055 150.455 170.035 150.791 169.988C150.736 170.438 150.713 170.812 150.721 171.113V174.383C150.721 174.684 150.744 175.027 150.791 175.414H149.93C149.977 174.996 150 174.646 150 174.365V170.65H144.41V174.5C144.41 174.781 144.434 175.117 144.48 175.508H143.613C143.664 175.059 143.689 174.715 143.689 174.477V171.02C143.689 170.738 143.664 170.391 143.613 169.977C144.031 170.023 144.363 170.047 144.609 170.047H146.842C147.244 169.566 147.66 169.02 148.09 168.406H144.973C144.348 169.109 143.607 169.84 142.752 170.598C142.506 170.352 142.238 170.156 141.949 170.012ZM146.654 171.406L147.598 171.559C147.695 171.574 147.744 171.602 147.744 171.641C147.744 171.676 147.699 171.729 147.609 171.799C147.5 171.881 147.441 172.049 147.434 172.303C147.418 174.08 147.158 175.252 146.654 175.818C145.963 176.604 144.746 177.309 143.004 177.934C142.844 177.613 142.627 177.328 142.354 177.078C144.268 176.758 145.564 176.094 146.244 175.086C146.549 174.535 146.701 173.703 146.701 172.59C146.701 172.207 146.686 171.812 146.654 171.406ZM147.41 175.865L147.791 175.15C149.166 175.74 150.518 176.379 151.846 177.066L151.453 177.846C150.363 177.158 149.016 176.498 147.41 175.865ZM154.822 170.697H158.713V169.854H156.299C155.979 169.854 155.646 169.879 155.303 169.93V169.186C155.662 169.232 155.994 169.256 156.299 169.256H158.713V168.535H155.268C154.963 168.535 154.631 168.559 154.271 168.605V167.861C154.646 167.912 154.979 167.938 155.268 167.938H158.713V167.621C158.713 167.344 158.689 166.988 158.643 166.555L159.574 166.689C159.664 166.697 159.713 166.717 159.721 166.748C159.729 166.771 159.701 166.811 159.639 166.865C159.479 166.994 159.402 167.246 159.41 167.621V167.938H162.891C163.234 167.938 163.566 167.912 163.887 167.861V168.605C163.539 168.559 163.207 168.535 162.891 168.535H159.41V169.256H161.783C162.111 169.256 162.436 169.232 162.756 169.186V169.93C162.42 169.879 162.096 169.854 161.783 169.854H159.41V170.697H163.295C163.639 170.697 163.967 170.672 164.279 170.621V171.365C163.928 171.318 163.6 171.295 163.295 171.295H154.822C154.529 171.295 154.197 171.318 153.826 171.365V170.621C154.186 170.672 154.518 170.697 154.822 170.697ZM158.531 173.229L159.369 173.41C159.498 173.441 159.562 173.477 159.562 173.516C159.57 173.562 159.516 173.631 159.398 173.721C159.277 173.768 159.189 173.971 159.135 174.33C158.924 176.193 157.363 177.395 154.453 177.934C154.309 177.652 154.092 177.379 153.803 177.113C156.967 176.941 158.549 175.773 158.549 173.609C158.549 173.504 158.543 173.377 158.531 173.229ZM162.504 172.051C162.457 172.387 162.434 172.723 162.434 173.059V174.406C162.434 174.727 162.457 175.078 162.504 175.461H161.689C161.736 175.094 161.76 174.742 161.76 174.406V172.725H156.287V174.57C156.287 174.906 156.311 175.254 156.357 175.613H155.543C155.59 175.27 155.613 174.922 155.613 174.57V173.059C155.613 172.77 155.59 172.434 155.543 172.051C155.953 172.098 156.322 172.121 156.65 172.121H161.426C161.77 172.121 162.129 172.098 162.504 172.051ZM159.445 175.83L159.85 175.197C161.307 175.947 162.555 176.623 163.594 177.225L163.113 177.945C162.098 177.207 160.875 176.502 159.445 175.83ZM165.369 176.539C168.791 175.559 170.502 172.834 170.502 168.365C170.502 167.959 170.488 167.543 170.461 167.117L171.504 167.299C171.594 167.314 171.643 167.344 171.65 167.387C171.666 167.426 171.637 167.473 171.562 167.527C171.434 167.656 171.354 167.824 171.322 168.031C171.318 168.141 171.316 168.281 171.316 168.453C171.316 172.023 172.998 174.76 176.361 176.662C176.061 176.756 175.781 176.975 175.523 177.318C173.262 175.975 171.746 173.951 170.977 171.248C170.457 174.01 168.842 176.021 166.131 177.283C165.896 176.924 165.643 176.676 165.369 176.539Z" fill="black" fill-opacity="0.7"/>
<path d="M160.307 152.091C160.307 151.857 160.011 151.474 159.53 150.846H157.465C156.986 151.471 156.691 151.857 156.691 152.091C156.71 152.348 157.265 153.471 157.77 154.12C157.338 156.044 156.83 157.477 156.83 159.154C156.83 159.728 158.097 160.919 158.478 160.951H158.52C158.898 160.922 160.167 159.728 160.167 159.154C160.167 157.477 159.657 156.044 159.228 154.12C159.735 153.466 160.287 152.345 160.307 152.091ZM158.5 137.55C159.962 137.55 161.337 138.119 162.372 139.154C163.407 140.189 163.976 141.564 163.976 143.026C163.976 144.489 163.405 145.863 162.372 146.896C161.337 147.931 159.962 148.5 158.5 148.5C157.038 148.5 155.663 147.931 154.628 146.896C153.593 145.861 153.024 144.486 153.024 143.024C153.024 141.562 153.593 140.187 154.628 139.152C155.663 138.119 157.038 137.55 158.5 137.55ZM158.5 136C154.621 136 151.476 139.145 151.476 143.024C151.476 146.903 154.621 150.05 158.5 150.05C162.379 150.05 165.524 146.906 165.524 143.026C165.524 139.147 162.379 136 158.5 136Z" fill="black" fill-opacity="0.65"/>
<path d="M171 161H169.442C169.442 154.967 164.533 150.058 158.5 150.058C152.467 150.058 147.558 154.967 147.558 161H146C146 159.313 146.33 157.675 146.981 156.134C147.611 154.645 148.515 153.31 149.662 152.162C150.81 151.015 152.147 150.114 153.634 149.484C155.175 148.83 156.813 148.5 158.5 148.5C160.187 148.5 161.825 148.83 163.366 149.481C164.855 150.111 166.19 151.015 167.338 152.162C168.485 153.31 169.386 154.647 170.016 156.134C170.67 157.675 171 159.313 171 161Z" fill="black" fill-opacity="0.65"/>
<path d="M225.346 172.965C226.178 172.539 226.967 171.783 227.713 170.697H226.477C226.172 170.697 225.859 170.721 225.539 170.768V170.07C225.875 170.121 226.188 170.146 226.477 170.146H228.17V168.102C227.568 168.223 226.908 168.332 226.189 168.43C226.076 168.141 225.928 167.889 225.744 167.674C225.854 167.678 226.014 167.68 226.225 167.68C227.557 167.68 228.781 167.477 229.898 167.07L230.35 167.662C230.439 167.771 230.477 167.838 230.461 167.861C230.457 167.881 230.436 167.891 230.396 167.891C230.361 167.891 230.318 167.885 230.268 167.873C230.186 167.85 230.1 167.838 230.01 167.838C229.912 167.838 229.811 167.85 229.705 167.873C229.689 167.873 229.656 167.879 229.605 167.891C229.312 167.945 229.049 167.984 228.814 168.008V170.146H229.646C229.998 170.146 230.305 170.121 230.566 170.07V170.768C230.281 170.721 229.975 170.697 229.646 170.697H228.814V171.693C228.814 171.998 228.84 172.318 228.891 172.654H228.094C228.145 172.342 228.17 172.021 228.17 171.693V171.102C227.826 171.605 227.305 172.223 226.605 172.953C226.926 172.992 227.219 173.012 227.484 173.012H229.559C229.84 173.012 230.141 172.988 230.461 172.941C230.414 173.211 230.391 173.482 230.391 173.756V176.756C230.391 177.068 230.414 177.373 230.461 177.67H229.67C229.725 177.389 229.748 177.184 229.74 177.055H227.15C227.15 177.207 227.174 177.443 227.221 177.764H226.43C226.477 177.443 226.5 177.111 226.5 176.768V173.973C226.5 173.723 226.48 173.447 226.441 173.146C226.312 173.279 226.176 173.395 226.031 173.492C225.855 173.301 225.627 173.125 225.346 172.965ZM227.15 175.314V176.504H228.146V175.314H227.15ZM227.15 173.562V174.764H228.146V173.562H227.15ZM228.791 175.314V176.504H229.74V175.314H228.791ZM228.791 173.562V174.764H229.74V173.562H228.791ZM228.891 171.441L229.354 170.973C229.986 171.531 230.562 172.078 231.082 172.613L230.643 173.105C230.08 172.5 229.496 171.945 228.891 171.441ZM226.418 168.898L226.992 168.559C227.238 168.863 227.49 169.232 227.748 169.666L227.174 169.977C226.963 169.594 226.711 169.234 226.418 168.898ZM229.008 169.666C229.383 169.201 229.635 168.764 229.764 168.354L230.414 168.74C230.492 168.779 230.527 168.811 230.52 168.834C230.512 168.869 230.465 168.902 230.379 168.934C230.234 168.98 230.125 169.068 230.051 169.197C229.93 169.389 229.758 169.645 229.535 169.965C229.398 169.844 229.223 169.744 229.008 169.666ZM231.322 169.941C231.604 170.477 231.877 171.072 232.143 171.729L231.551 172.051C231.336 171.445 231.068 170.838 230.748 170.229L231.322 169.941ZM234 169.883C234.359 170.465 234.676 171.049 234.949 171.635L234.369 171.969C234.076 171.289 233.773 170.697 233.461 170.193L234 169.883ZM233.268 174.236C233.971 173.627 234.65 172.922 235.307 172.121V168.271H234.516C234.203 168.271 233.859 168.295 233.484 168.342V167.621C233.844 167.672 234.188 167.697 234.516 167.697H235.055C235.383 167.697 235.707 167.672 236.027 167.621C235.98 168 235.957 168.316 235.957 168.57V176.322C235.973 176.877 235.873 177.217 235.658 177.342C235.482 177.51 234.986 177.619 234.17 177.67C234.088 177.42 233.967 177.139 233.807 176.826C234.057 176.846 234.27 176.855 234.445 176.855C234.734 176.855 234.934 176.83 235.043 176.779C235.234 176.717 235.322 176.537 235.307 176.24V173.023C234.635 173.77 234.127 174.373 233.783 174.834L233.268 174.236ZM230.602 174.248C231.195 173.775 231.809 173.156 232.441 172.391V168.295H231.814C231.518 168.295 231.178 168.318 230.795 168.365V167.65C231.189 167.697 231.529 167.721 231.814 167.721H232.201C232.521 167.721 232.842 167.697 233.162 167.65C233.111 168.01 233.086 168.316 233.086 168.57V176.287C233.102 176.807 233.002 177.139 232.787 177.283C232.596 177.451 232.1 177.58 231.299 177.67C231.221 177.389 231.09 177.092 230.906 176.779C231.258 176.811 231.527 176.826 231.715 176.826C231.945 176.826 232.104 176.807 232.189 176.768C232.373 176.713 232.457 176.525 232.441 176.205V173.357C231.801 174.006 231.355 174.51 231.105 174.869L230.602 174.248ZM239.941 171.283L239.865 175.918C240.244 175.645 240.594 175.324 240.914 174.957C240.961 175.227 241.033 175.467 241.131 175.678C240.385 176.268 239.828 176.768 239.461 177.178C239.262 176.936 239.064 176.715 238.869 176.516C239.072 176.379 239.182 176.195 239.197 175.965L239.268 171.09H238.395C238.066 171.09 237.742 171.115 237.422 171.166V170.422C237.742 170.469 238.066 170.492 238.395 170.492H239.016C239.352 170.492 239.684 170.469 240.012 170.422C239.965 170.66 239.941 170.947 239.941 171.283ZM238.271 167.434L238.775 166.93C239.447 167.48 240.062 168.049 240.621 168.635L240.105 169.186C239.516 168.529 238.904 167.945 238.271 167.434ZM243.838 169.83C243.049 169.232 242.426 168.514 241.969 167.674C241.617 167.682 241.324 167.705 241.09 167.744V167C241.379 167.047 241.699 167.07 242.051 167.07H246.082C246.441 167.07 246.781 167.047 247.102 167C246.465 168.09 245.762 169.018 244.992 169.783C246.223 170.455 247.406 170.836 248.543 170.926C248.207 171.18 247.979 171.471 247.857 171.799C246.572 171.385 245.43 170.877 244.43 170.275C243.477 171.061 242.316 171.709 240.949 172.221C240.828 171.893 240.615 171.633 240.311 171.441C241.545 171.289 242.721 170.752 243.838 169.83ZM245.854 167.674H242.736C243.018 168.225 243.57 168.797 244.395 169.391C244.906 168.926 245.393 168.354 245.854 167.674ZM244.131 174.523V173.205H242.643C242.307 173.205 241.982 173.229 241.67 173.275V172.531C241.932 172.578 242.256 172.602 242.643 172.602H244.131V171.957C244.131 171.891 244.113 171.678 244.078 171.318C244.07 171.166 244.062 171.059 244.055 170.996L244.969 171.113C245.062 171.133 245.113 171.158 245.121 171.189C245.133 171.221 245.094 171.256 245.004 171.295C244.859 171.334 244.791 171.594 244.799 172.074V172.602H246.369C246.732 172.602 247.064 172.578 247.365 172.531V173.275C247.08 173.229 246.758 173.205 246.398 173.205H244.799V174.523H247.131C247.482 174.523 247.809 174.5 248.109 174.453V175.197C247.781 175.146 247.463 175.121 247.154 175.121H244.799V176.721C244.799 177.041 244.822 177.361 244.869 177.682H244.055C244.105 177.346 244.131 177.025 244.131 176.721V175.121H242.15C241.83 175.121 241.51 175.146 241.189 175.197V174.453C241.533 174.5 241.854 174.523 242.15 174.523H244.131ZM255.609 171.213H250.91C250.629 171.221 250.301 171.244 249.926 171.283V170.539C250.301 170.578 250.629 170.602 250.91 170.609H254.578V169.016H252.457C252.207 169.023 251.883 169.047 251.484 169.086V168.342C251.875 168.385 252.199 168.41 252.457 168.418H254.578V167.65C254.57 167.361 254.547 167.016 254.508 166.613L255.387 166.736C255.449 166.744 255.48 166.773 255.48 166.824C255.48 166.871 255.449 166.922 255.387 166.977C255.305 167 255.268 167.268 255.275 167.779V168.418H257.35C257.67 168.402 257.986 168.377 258.299 168.342V169.004C258.65 168.668 258.971 168.264 259.26 167.791L260.039 168.559C260.09 168.609 260.115 168.65 260.115 168.682C260.115 168.689 260.113 168.697 260.109 168.705C260.102 168.736 260.047 168.756 259.945 168.764C259.719 168.771 259.463 168.904 259.178 169.162C258.689 169.592 258.129 170.074 257.496 170.609H259.523C259.797 170.602 260.117 170.578 260.484 170.539V171.283C260.117 171.244 259.797 171.221 259.523 171.213H256.834C256.025 171.795 255.266 172.283 254.555 172.678H257.631C257.967 172.67 258.322 172.645 258.697 172.602C258.658 172.98 258.633 173.316 258.621 173.609V176.721C258.633 177.002 258.658 177.361 258.697 177.799H257.883C257.922 177.494 257.945 177.234 257.953 177.02H253.477C253.484 177.25 253.508 177.533 253.547 177.869H252.721C252.76 177.486 252.783 177.135 252.791 176.814V173.586C251.959 173.98 251.043 174.373 250.043 174.764C249.922 174.443 249.715 174.16 249.422 173.914C251.43 173.562 253.492 172.662 255.609 171.213ZM253.465 175.098V176.469H257.953V175.098H253.465ZM253.465 173.252V174.523H257.953V173.252H253.465ZM255.275 169.016V170.609H256.342C257.021 170.141 257.646 169.633 258.217 169.086C257.959 169.055 257.666 169.031 257.338 169.016H255.275Z" fill="black" fill-opacity="0.7"/>
<path d="M249.866 157.875H235.134C234.026 157.875 233.125 156.974 233.125 155.866V141.134C233.125 140.026 234.026 139.125 235.134 139.125H242.5C242.932 139.125 243.281 139.474 243.281 139.906C243.281 140.338 242.932 140.688 242.5 140.688H235.134C234.893 140.688 234.688 140.893 234.688 141.134V155.866C234.688 156.107 234.893 156.312 235.134 156.312H249.866C250.107 156.312 250.312 156.107 250.312 155.866V148.5C250.312 148.068 250.662 147.719 251.094 147.719C251.526 147.719 251.875 148.068 251.875 148.5V155.866C251.875 156.974 250.974 157.875 249.866 157.875Z" fill="black" fill-opacity="0.65"/>
<path d="M249.59 140.817L250.186 141.413L243.096 148.5H242.5V147.904L249.59 140.817ZM249.59 139.157C249.25 139.157 248.911 139.286 248.652 139.545L240.938 147.26V148.737C240.938 149.469 241.531 150.062 242.263 150.062H243.74L251.455 142.348C251.973 141.83 251.973 140.99 251.455 140.473L250.527 139.545C250.269 139.286 249.929 139.157 249.59 139.157Z" fill="black" fill-opacity="0.65"/>
<path d="M315.139 166.508C315.826 166.98 316.441 167.436 316.984 167.873L316.551 168.395H319.914C320.266 168.395 320.613 168.369 320.957 168.318C320.91 168.678 320.887 169.002 320.887 169.291V169.414C320.887 169.727 320.91 170.051 320.957 170.387H320.143C320.189 170.051 320.213 169.727 320.213 169.414V168.992H311.887V169.473C311.887 169.762 311.91 170.094 311.957 170.469H311.143C311.189 170.109 311.213 169.777 311.213 169.473V169.303C311.213 169.014 311.189 168.686 311.143 168.318C311.502 168.369 311.854 168.395 312.197 168.395H316.41C315.945 167.984 315.354 167.551 314.635 167.094L315.139 166.508ZM312.109 170.598C312.496 170.648 312.846 170.674 313.158 170.674H315.689V170.357C315.689 170.021 315.664 169.65 315.613 169.244L316.551 169.373C316.641 169.385 316.689 169.406 316.697 169.438C316.697 169.461 316.66 169.496 316.586 169.543C316.426 169.609 316.35 169.881 316.357 170.357V170.674H318.895C319.195 170.674 319.547 170.648 319.949 170.598C319.902 170.969 319.879 171.293 319.879 171.57V175.062C319.879 175.398 319.902 175.746 319.949 176.105H319.135C319.182 175.836 319.205 175.598 319.205 175.391H316.357V176.949C316.357 177.277 316.383 177.621 316.434 177.98H315.613C315.664 177.621 315.689 177.277 315.689 176.949V175.391H312.854C312.854 175.621 312.879 175.877 312.93 176.158H312.109C312.16 175.822 312.186 175.482 312.186 175.139V171.617C312.186 171.301 312.16 170.961 312.109 170.598ZM312.854 173.322V174.787H315.689V173.322H312.854ZM312.854 171.271V172.725H315.689V171.271H312.854ZM316.357 174.787H319.205V173.322H316.357V174.787ZM316.357 171.271V172.725H319.205V171.271H316.357ZM326.213 175.098C327.58 174.684 328.832 173.775 329.969 172.373C328.84 172.416 328.084 172.492 327.701 172.602L327.379 171.74C327.672 171.643 327.943 171.438 328.193 171.125C328.658 170.551 329.018 169.963 329.271 169.361H327.748C327.443 169.369 327.111 169.395 326.752 169.438V168.693C327.119 168.732 327.451 168.756 327.748 168.764H332.523C332.828 168.756 333.148 168.732 333.484 168.693V169.438C333.141 169.395 332.82 169.369 332.523 169.361H329.57L330.174 169.643C330.244 169.674 330.275 169.709 330.268 169.748C330.252 169.787 330.203 169.814 330.121 169.83C329.945 169.881 329.773 170.029 329.605 170.275C329.223 170.818 328.811 171.342 328.369 171.846C329.01 171.83 329.658 171.814 330.314 171.799C330.619 171.385 330.855 170.934 331.023 170.445L331.861 170.973C331.92 171.012 331.941 171.053 331.926 171.096C331.91 171.135 331.861 171.158 331.779 171.166C331.588 171.221 331.416 171.367 331.264 171.605C330.326 173.328 328.875 174.713 326.91 175.76C326.805 175.514 326.572 175.293 326.213 175.098ZM328.639 167.146L329.113 166.59C329.797 167.07 330.422 167.57 330.988 168.09L330.484 168.682C329.926 168.096 329.311 167.584 328.639 167.146ZM332.078 172.15L332.91 172.625C332.988 172.676 333.023 172.721 333.016 172.76C333.008 172.799 332.955 172.83 332.857 172.854C332.697 172.904 332.543 173.053 332.395 173.299C332.051 173.877 331.678 174.426 331.275 174.945C331.947 175.473 332.668 176.064 333.438 176.721L332.91 177.395C332.371 176.746 331.674 176.098 330.818 175.449C329.787 176.375 328.58 177.17 327.197 177.834C326.99 177.533 326.75 177.281 326.477 177.078C329.262 176.289 331.129 174.646 332.078 172.15ZM324.426 170.059H323.646C323.381 170.066 323.061 170.092 322.686 170.135V169.391C323.053 169.43 323.373 169.453 323.646 169.461H324.508V167.85C324.5 167.541 324.477 167.174 324.438 166.748L325.322 166.865C325.381 166.877 325.414 166.906 325.422 166.953C325.422 167.008 325.393 167.051 325.334 167.082C325.225 167.098 325.174 167.367 325.182 167.891V169.461H325.445C325.758 169.453 326.086 169.43 326.43 169.391V170.135C326.086 170.092 325.762 170.066 325.457 170.059H325.182V170.586C325.787 171.117 326.379 171.697 326.957 172.326L326.465 172.965C326.082 172.402 325.654 171.883 325.182 171.406V176.826C325.189 177.139 325.213 177.492 325.252 177.887H324.438C324.477 177.5 324.5 177.146 324.508 176.826V171.775C324.082 172.873 323.654 173.826 323.225 174.635C322.967 174.506 322.688 174.416 322.387 174.365C323.121 173.568 323.801 172.133 324.426 170.059ZM334.369 176.539C337.791 175.559 339.502 172.834 339.502 168.365C339.502 167.959 339.488 167.543 339.461 167.117L340.504 167.299C340.594 167.314 340.643 167.344 340.65 167.387C340.666 167.426 340.637 167.473 340.562 167.527C340.434 167.656 340.354 167.824 340.322 168.031C340.318 168.141 340.316 168.281 340.316 168.453C340.316 172.023 341.998 174.76 345.361 176.662C345.061 176.756 344.781 176.975 344.523 177.318C342.262 175.975 340.746 173.951 339.977 171.248C339.457 174.01 337.842 176.021 335.131 177.283C334.896 176.924 334.643 176.676 334.369 176.539Z" fill="black" fill-opacity="0.7"/>
<path d="M327.5 149.75C323.509 149.75 320.263 146.666 320.263 142.875C320.263 139.084 323.509 136 327.5 136C331.491 136 334.737 139.084 334.737 142.875C334.737 146.666 331.491 149.75 327.5 149.75ZM327.5 137.25C324.236 137.25 321.579 139.774 321.579 142.875C321.579 145.976 324.236 148.5 327.5 148.5C330.764 148.5 333.421 145.976 333.421 142.875C333.421 139.774 330.764 137.25 327.5 137.25ZM338.026 161H316.974C315.886 161 315 160.159 315 159.125C315 159.04 315.018 157.019 316.612 155C317.539 153.825 318.809 152.891 320.387 152.226C322.313 151.413 324.707 151 327.5 151C330.293 151 332.687 151.413 334.613 152.226C336.191 152.892 337.461 153.825 338.388 155C339.982 157.019 340 159.04 340 159.125C340 160.159 339.114 161 338.026 161ZM327.5 152.25C322.912 152.25 319.526 153.441 317.709 155.695C316.347 157.384 316.317 159.11 316.316 159.128C316.316 159.293 316.386 159.451 316.509 159.568C316.633 159.684 316.8 159.75 316.974 159.75H338.026C338.201 159.75 338.368 159.684 338.492 159.567C338.615 159.45 338.684 159.291 338.684 159.125C338.684 159.11 338.654 157.384 337.291 155.695C335.472 153.441 332.087 152.25 327.5 152.25Z" fill="black" fill-opacity="0.65"/>
</svg>
