<svg width="244" height="40" viewBox="0 0 244 40" fill="none" xmlns="http://www.w3.org/2000/svg">
<path d="M15.2031 30H0.671875V1.99219H3.95312V27.0312H15.2031V30ZM27.0297 30.4688C24.074 30.4688 21.7107 29.5378 19.9398 27.6758C18.182 25.8008 17.3031 23.3203 17.3031 20.2344C17.3031 16.875 18.2211 14.2513 20.057 12.3633C21.893 10.4753 24.3734 9.53125 27.4984 9.53125C30.4802 9.53125 32.8044 10.4492 34.4711 12.2852C36.1508 14.1211 36.9906 16.6667 36.9906 19.9219C36.9906 23.112 36.0857 25.6706 34.2758 27.5977C32.4789 29.5117 30.0635 30.4688 27.0297 30.4688ZM27.2641 12.2266C25.2068 12.2266 23.5792 12.9297 22.3813 14.3359C21.1833 15.7292 20.5844 17.6562 20.5844 20.1172C20.5844 22.487 21.1898 24.3555 22.4008 25.7227C23.6117 27.0898 25.2328 27.7734 27.2641 27.7734C29.3344 27.7734 30.9229 27.1029 32.0297 25.7617C33.1495 24.4206 33.7094 22.513 33.7094 20.0391C33.7094 17.5391 33.1495 15.612 32.0297 14.2578C30.9229 12.9036 29.3344 12.2266 27.2641 12.2266ZM58.7781 28.3984C58.7781 35.7422 55.2625 39.4141 48.2313 39.4141C45.7573 39.4141 43.5958 38.9453 41.7469 38.0078V34.8047C43.9995 36.0547 46.1479 36.6797 48.1922 36.6797C53.1141 36.6797 55.575 34.0625 55.575 28.8281V26.6406H55.4969C53.9734 29.1927 51.6818 30.4688 48.6219 30.4688C46.1349 30.4688 44.1297 29.5833 42.6063 27.8125C41.0958 26.0286 40.3406 23.6393 40.3406 20.6445C40.3406 17.2461 41.1544 14.5443 42.782 12.5391C44.4227 10.5339 46.6622 9.53125 49.5008 9.53125C52.1961 9.53125 54.1948 10.612 55.4969 12.7734H55.575V10H58.7781V28.3984ZM55.575 20.957V18.0078C55.575 16.4193 55.0346 15.0586 53.9539 13.9258C52.8862 12.793 51.5516 12.2266 49.95 12.2266C47.9708 12.2266 46.4214 12.9492 45.3016 14.3945C44.1818 15.8268 43.6219 17.8385 43.6219 20.4297C43.6219 22.6562 44.1557 24.4401 45.2234 25.7812C46.3042 27.1094 47.7299 27.7734 49.5008 27.7734C51.2977 27.7734 52.756 27.1354 53.8758 25.8594C55.0086 24.5833 55.575 22.9492 55.575 20.957ZM66.5031 4.92188C65.9302 4.92188 65.4419 4.72656 65.0383 4.33594C64.6346 3.94531 64.4328 3.45052 64.4328 2.85156C64.4328 2.2526 64.6346 1.75781 65.0383 1.36719C65.4419 0.963542 65.9302 0.761719 66.5031 0.761719C67.0891 0.761719 67.5839 0.963542 67.9875 1.36719C68.4042 1.75781 68.6125 2.2526 68.6125 2.85156C68.6125 3.42448 68.4042 3.91276 67.9875 4.31641C67.5839 4.72005 67.0891 4.92188 66.5031 4.92188ZM68.0656 30H64.8625V10H68.0656V30ZM90.7516 30H87.5484V18.5938C87.5484 14.349 85.999 12.2266 82.9 12.2266C81.2984 12.2266 79.9703 12.832 78.9156 14.043C77.874 15.2409 77.3531 16.7578 77.3531 18.5938V30H74.15V10H77.3531V13.3203H77.4313C78.9417 10.7943 81.1292 9.53125 83.9938 9.53125C86.1813 9.53125 87.8544 10.2409 89.0133 11.6602C90.1721 13.0664 90.7516 15.1042 90.7516 17.7734V30ZM112.594 30.293C110.844 30.293 109.457 29.7188 108.434 28.5703C107.418 27.4141 106.911 25.9141 106.911 24.0703C106.911 22.0781 107.442 20.5195 108.504 19.3945C109.575 18.2695 110.981 17.707 112.723 17.707C114.434 17.707 115.786 18.2656 116.778 19.3828C117.77 20.5 118.266 22.0469 118.266 24.0234C118.266 25.8906 117.758 27.4023 116.743 28.5586C115.735 29.7148 114.352 30.293 112.594 30.293ZM112.676 18.6914C111.262 18.6914 110.133 19.168 109.29 20.1211C108.454 21.0742 108.036 22.3984 108.036 24.0938C108.036 25.6641 108.446 26.9258 109.266 27.8789C110.086 28.832 111.207 29.3086 112.629 29.3086C114.075 29.3086 115.188 28.8398 115.969 27.9023C116.75 26.9648 117.141 25.6641 117.141 24C117.141 22.2891 116.75 20.9766 115.969 20.0625C115.196 19.1484 114.098 18.6914 112.676 18.6914ZM126.675 19.125C126.315 18.8672 125.893 18.7383 125.409 18.7383C124.464 18.7383 123.671 19.2266 123.03 20.2031C122.389 21.1797 122.069 22.5664 122.069 24.3633V30H121.014V18H122.069V20.6602H122.116C122.389 19.7461 122.823 19.0352 123.417 18.5273C124.01 18.0195 124.698 17.7656 125.479 17.7656C125.925 17.7656 126.323 17.8359 126.675 17.9766V19.125ZM141.751 26.3086C142.173 26.625 142.636 26.9121 143.14 27.1699C143.656 27.416 144.177 27.627 144.705 27.8027C145.244 27.9668 145.783 28.0957 146.322 28.1895C146.861 28.2715 147.376 28.3125 147.869 28.3125C149.779 28.3125 151.208 27.9434 152.158 27.2051C153.107 26.4668 153.581 25.4062 153.581 24.0234C153.581 23.3555 153.47 22.7754 153.247 22.2832C153.025 21.7793 152.679 21.3105 152.21 20.877C151.742 20.4434 151.15 20.0156 150.435 19.5938C149.72 19.1602 148.876 18.6738 147.904 18.1348C146.826 17.5488 145.9 16.998 145.126 16.4824C144.365 15.9551 143.738 15.4219 143.246 14.8828C142.765 14.332 142.408 13.7402 142.173 13.1074C141.951 12.4746 141.839 11.7539 141.839 10.9453C141.839 9.92578 142.056 9.01172 142.49 8.20312C142.923 7.39453 143.509 6.70898 144.247 6.14648C144.986 5.57227 145.847 5.13281 146.831 4.82812C147.828 4.52344 148.888 4.37109 150.013 4.37109C151.994 4.37109 153.652 4.64648 154.988 5.19727V7.78125C153.499 6.92578 151.753 6.49805 149.749 6.49805C148.999 6.49805 148.29 6.5918 147.622 6.7793C146.966 6.95508 146.386 7.21875 145.882 7.57031C145.39 7.92188 144.997 8.36133 144.705 8.88867C144.423 9.4043 144.283 10.0078 144.283 10.6992C144.283 11.3555 144.376 11.9238 144.564 12.4043C144.763 12.873 145.074 13.3184 145.496 13.7402C145.929 14.1621 146.492 14.584 147.183 15.0059C147.886 15.416 148.742 15.8906 149.749 16.4297C150.804 16.9922 151.724 17.543 152.509 18.082C153.294 18.6094 153.945 19.166 154.46 19.752C154.988 20.3262 155.38 20.9414 155.638 21.5977C155.896 22.2422 156.025 22.9629 156.025 23.7598C156.025 24.8613 155.82 25.834 155.41 26.6777C154.999 27.5098 154.425 28.2012 153.687 28.752C152.949 29.3027 152.07 29.7188 151.05 30C150.031 30.2812 148.912 30.4219 147.693 30.4219C147.294 30.4219 146.82 30.3867 146.269 30.3164C145.718 30.2578 145.162 30.1641 144.599 30.0352C144.037 29.918 143.497 29.7773 142.982 29.6133C142.478 29.4375 142.068 29.25 141.751 29.0508V26.3086ZM161.641 7.44727C161.208 7.44727 160.833 7.29492 160.516 6.99023C160.2 6.68555 160.042 6.29883 160.042 5.83008C160.042 5.37305 160.2 4.99805 160.516 4.70508C160.833 4.40039 161.208 4.24805 161.641 4.24805C161.864 4.24805 162.075 4.28906 162.274 4.37109C162.473 4.44141 162.643 4.54688 162.784 4.6875C162.936 4.82812 163.054 4.99805 163.136 5.19727C163.229 5.38477 163.276 5.5957 163.276 5.83008C163.276 6.05273 163.235 6.26367 163.153 6.46289C163.071 6.66211 162.954 6.83789 162.802 6.99023C162.649 7.13086 162.473 7.24219 162.274 7.32422C162.087 7.40625 161.876 7.44727 161.641 7.44727ZM160.534 30V12H162.784V30H160.534ZM183.096 28.6113C183.096 31.9512 182.334 34.4238 180.811 36.0293C179.299 37.6465 176.961 38.4551 173.797 38.4551C171.828 38.4551 169.965 38.0156 168.207 37.1367V34.8516C170.164 35.9414 172.027 36.4863 173.797 36.4863C178.496 36.4863 180.846 34.002 180.846 29.0332V26.8711H180.776C179.393 29.2383 177.283 30.4219 174.447 30.4219C173.334 30.4219 172.315 30.2168 171.389 29.8066C170.475 29.3965 169.69 28.8047 169.033 28.0312C168.377 27.2578 167.867 26.3203 167.504 25.2188C167.141 24.1055 166.959 22.8516 166.959 21.457C166.959 19.9805 167.152 18.6387 167.539 17.4316C167.926 16.2129 168.477 15.1699 169.192 14.3027C169.906 13.4355 170.768 12.7676 171.776 12.2988C172.795 11.8184 173.938 11.5781 175.203 11.5781C177.746 11.5781 179.604 12.6094 180.776 14.6719H180.846V12H183.096V28.6113ZM180.846 19.0664C180.846 18.3164 180.711 17.6074 180.442 16.9395C180.172 16.2715 179.797 15.6855 179.317 15.1816C178.836 14.6777 178.262 14.2793 177.594 13.9863C176.938 13.6816 176.211 13.5293 175.414 13.5293C174.477 13.5293 173.627 13.7109 172.865 14.0742C172.115 14.4375 171.471 14.9531 170.932 15.6211C170.404 16.2891 169.994 17.1035 169.701 18.0645C169.42 19.0137 169.279 20.0859 169.279 21.2812C169.279 22.3828 169.414 23.3789 169.684 24.2695C169.953 25.1602 170.334 25.916 170.826 26.5371C171.319 27.1582 171.91 27.6387 172.602 27.9785C173.305 28.3184 174.084 28.4883 174.94 28.4883C175.83 28.4883 176.639 28.3301 177.365 28.0137C178.092 27.6855 178.713 27.2402 179.229 26.6777C179.744 26.1035 180.143 25.4355 180.424 24.6738C180.705 23.9004 180.846 23.0684 180.846 22.1777V19.0664ZM200.683 30V19.6289C200.683 15.5625 199.207 13.5293 196.253 13.5293C195.468 13.5293 194.742 13.6875 194.074 14.0039C193.406 14.3086 192.826 14.7363 192.334 15.2871C191.853 15.8379 191.472 16.4941 191.191 17.2559C190.921 18.0059 190.787 18.8203 190.787 19.6992V30H188.537V12H190.787V15.1289H190.857C192.193 12.7617 194.203 11.5781 196.886 11.5781C198.855 11.5781 200.355 12.2168 201.386 13.4941C202.417 14.7715 202.933 16.6172 202.933 19.0312V30H200.683ZM219.782 30V26.9414H219.712C218.493 29.2617 216.6 30.4219 214.034 30.4219C209.757 30.4219 207.618 27.8086 207.618 22.582V12H209.868V22.1602C209.868 24.3164 210.249 25.9102 211.011 26.9414C211.784 27.9727 212.962 28.4883 214.544 28.4883C215.317 28.4883 216.02 28.3418 216.653 28.0488C217.298 27.7441 217.849 27.3223 218.306 26.7832C218.774 26.2324 219.138 25.5762 219.395 24.8145C219.653 24.0527 219.782 23.209 219.782 22.2832V12H222.032V30H219.782ZM229.723 27.0996V38.2793H227.473V12H229.723V15.4453H229.793C230.461 14.1914 231.352 13.2363 232.465 12.5801C233.59 11.9121 234.856 11.5781 236.262 11.5781C237.41 11.5781 238.436 11.7891 239.338 12.2109C240.252 12.6211 241.02 13.207 241.641 13.9688C242.274 14.7305 242.754 15.6562 243.082 16.7461C243.422 17.8359 243.592 19.0605 243.592 20.4199C243.592 21.9082 243.405 23.2676 243.03 24.498C242.655 25.7168 242.115 26.7656 241.412 27.6445C240.709 28.5234 239.854 29.209 238.846 29.7012C237.85 30.1816 236.725 30.4219 235.471 30.4219C232.94 30.4219 231.047 29.3145 229.793 27.0996H229.723ZM229.723 22.5117C229.723 23.332 229.858 24.1055 230.127 24.832C230.408 25.5469 230.795 26.1797 231.287 26.7305C231.78 27.2695 232.371 27.6973 233.063 28.0137C233.766 28.3301 234.539 28.4883 235.383 28.4883C236.285 28.4883 237.1 28.3008 237.826 27.9258C238.553 27.5391 239.168 26.9941 239.672 26.291C240.188 25.5879 240.58 24.7383 240.85 23.7422C241.131 22.7461 241.272 21.6328 241.272 20.4023C241.272 19.3477 241.143 18.3984 240.885 17.5547C240.627 16.6992 240.258 15.9727 239.778 15.375C239.309 14.7773 238.735 14.3203 238.055 14.0039C237.387 13.6875 236.637 13.5293 235.805 13.5293C234.867 13.5293 234.024 13.7051 233.274 14.0566C232.524 14.3965 231.885 14.8652 231.358 15.4629C230.83 16.0605 230.426 16.7637 230.145 17.5723C229.864 18.3691 229.723 19.2188 229.723 20.1211V22.5117Z" fill="#3E3E3E"/>
</svg>
