<svg width="232" height="35" viewBox="0 0 232 35" fill="none" xmlns="http://www.w3.org/2000/svg">
<path d="M0.269531 26V0.792969H2.60742V23.873H12.7324V26H0.269531ZM23.64 26.4219C22.3041 26.4219 21.1029 26.1992 20.0365 25.7539C18.9818 25.3086 18.0795 24.6816 17.3295 23.873C16.5795 23.0527 16.0052 22.0742 15.6068 20.9375C15.2084 19.8008 15.0091 18.541 15.0091 17.1582C15.0091 15.6582 15.2201 14.3164 15.642 13.1328C16.0638 11.9492 16.6615 10.9473 17.4349 10.127C18.2201 9.29492 19.1634 8.66211 20.265 8.22852C21.3666 7.79492 22.597 7.57812 23.9564 7.57812C25.2572 7.57812 26.4291 7.79492 27.472 8.22852C28.515 8.65039 29.3998 9.26562 30.1263 10.0742C30.8529 10.8828 31.4095 11.8672 31.7962 13.0273C32.183 14.1875 32.3763 15.5059 32.3763 16.9824C32.3763 18.3887 32.1712 19.6719 31.7611 20.832C31.3627 21.9805 30.7884 22.9707 30.0384 23.8027C29.2884 24.6348 28.3744 25.2793 27.2962 25.7363C26.2181 26.1934 24.9994 26.4219 23.64 26.4219ZM23.8158 9.5293C22.8314 9.5293 21.9408 9.69922 21.1439 10.0391C20.347 10.3789 19.6615 10.877 19.0873 11.5332C18.5248 12.1777 18.0912 12.9746 17.7865 13.9238C17.4818 14.8613 17.3295 15.9277 17.3295 17.123C17.3295 18.248 17.4818 19.2617 17.7865 20.1641C18.0912 21.0664 18.5189 21.8398 19.0697 22.4844C19.6322 23.1289 20.3119 23.627 21.1087 23.9785C21.9056 24.3184 22.7962 24.4883 23.7806 24.4883C24.7884 24.4883 25.6791 24.3242 26.4525 23.9961C27.2259 23.6562 27.8822 23.1699 28.4212 22.5371C28.9603 21.8926 29.3646 21.1074 29.6341 20.1816C29.9154 19.2559 30.056 18.2012 30.056 17.0176C30.056 14.5918 29.517 12.7402 28.4388 11.4629C27.3607 10.1738 25.8197 9.5293 23.8158 9.5293ZM51.4226 24.6113C51.4226 27.9512 50.6609 30.4238 49.1374 32.0293C47.6257 33.6465 45.2878 34.4551 42.1237 34.4551C40.155 34.4551 38.2917 34.0156 36.5339 33.1367V30.8516C38.4909 31.9414 40.3542 32.4863 42.1237 32.4863C46.823 32.4863 49.1726 30.002 49.1726 25.0332V22.8711H49.1023C47.7195 25.2383 45.6101 26.4219 42.7741 26.4219C41.6609 26.4219 40.6413 26.2168 39.7155 25.8066C38.8015 25.3965 38.0163 24.8047 37.3601 24.0312C36.7038 23.2578 36.1941 22.3203 35.8308 21.2188C35.4675 20.1055 35.2859 18.8516 35.2859 17.457C35.2859 15.9805 35.4792 14.6387 35.8659 13.4316C36.2527 12.2129 36.8034 11.1699 37.5183 10.3027C38.2331 9.43555 39.0945 8.76758 40.1023 8.29883C41.1218 7.81836 42.2644 7.57812 43.53 7.57812C46.073 7.57812 47.9304 8.60938 49.1023 10.6719H49.1726V8H51.4226V24.6113ZM49.1726 15.0664C49.1726 14.3164 49.0378 13.6074 48.7683 12.9395C48.4987 12.2715 48.1237 11.6855 47.6433 11.1816C47.1628 10.6777 46.5886 10.2793 45.9206 9.98633C45.2644 9.68164 44.5378 9.5293 43.7409 9.5293C42.8034 9.5293 41.9538 9.71094 41.1921 10.0742C40.4421 10.4375 39.7976 10.9531 39.2585 11.6211C38.7312 12.2891 38.321 13.1035 38.028 14.0645C37.7468 15.0137 37.6062 16.0859 37.6062 17.2812C37.6062 18.3828 37.7409 19.3789 38.0105 20.2695C38.28 21.1602 38.6609 21.916 39.153 22.5371C39.6452 23.1582 40.237 23.6387 40.9284 23.9785C41.6316 24.3184 42.4109 24.4883 43.2663 24.4883C44.157 24.4883 44.9655 24.3301 45.6921 24.0137C46.4187 23.6855 47.0398 23.2402 47.5554 22.6777C48.071 22.1035 48.4695 21.4355 48.7507 20.6738C49.032 19.9004 49.1726 19.0684 49.1726 18.1777V15.0664ZM57.9708 3.44727C57.5372 3.44727 57.1622 3.29492 56.8458 2.99023C56.5294 2.68555 56.3712 2.29883 56.3712 1.83008C56.3712 1.37305 56.5294 0.998047 56.8458 0.705078C57.1622 0.400391 57.5372 0.248047 57.9708 0.248047C58.1934 0.248047 58.4044 0.289062 58.6036 0.371094C58.8028 0.441406 58.9727 0.546875 59.1134 0.6875C59.2657 0.828125 59.3829 0.998047 59.4649 1.19727C59.5587 1.38477 59.6055 1.5957 59.6055 1.83008C59.6055 2.05273 59.5645 2.26367 59.4825 2.46289C59.4005 2.66211 59.2833 2.83789 59.1309 2.99023C58.9786 3.13086 58.8028 3.24219 58.6036 3.32422C58.4161 3.40625 58.2052 3.44727 57.9708 3.44727ZM56.8634 26V8H59.1134V26H56.8634ZM76.7006 26V15.6289C76.7006 11.5625 75.2241 9.5293 72.2709 9.5293C71.4858 9.5293 70.7592 9.6875 70.0912 10.0039C69.4233 10.3086 68.8432 10.7363 68.351 11.2871C67.8705 11.8379 67.4897 12.4941 67.2084 13.2559C66.9389 14.0059 66.8041 14.8203 66.8041 15.6992V26H64.5541V8H66.8041V11.1289H66.8745C68.2104 8.76172 70.2202 7.57812 72.9037 7.57812C74.8725 7.57812 76.3725 8.2168 77.4037 9.49414C78.435 10.7715 78.9506 12.6172 78.9506 15.0312V26H76.7006ZM100.552 26.293C98.802 26.293 97.4153 25.7188 96.3919 24.5703C95.3763 23.4141 94.8684 21.9141 94.8684 20.0703C94.8684 18.0781 95.3997 16.5195 96.4622 15.3945C97.5325 14.2695 98.9388 13.707 100.681 13.707C102.392 13.707 103.743 14.2656 104.736 15.3828C105.728 16.5 106.224 18.0469 106.224 20.0234C106.224 21.8906 105.716 23.4023 104.7 24.5586C103.693 25.7148 102.31 26.293 100.552 26.293ZM100.634 14.6914C99.22 14.6914 98.0911 15.168 97.2473 16.1211C96.4114 17.0742 95.9934 18.3984 95.9934 20.0938C95.9934 21.6641 96.4036 22.9258 97.2239 23.8789C98.0442 24.832 99.1653 25.3086 100.587 25.3086C102.033 25.3086 103.146 24.8398 103.927 23.9023C104.708 22.9648 105.099 21.6641 105.099 20C105.099 18.2891 104.708 16.9766 103.927 16.0625C103.154 15.1484 102.056 14.6914 100.634 14.6914ZM114.632 15.125C114.273 14.8672 113.851 14.7383 113.367 14.7383C112.421 14.7383 111.628 15.2266 110.988 16.2031C110.347 17.1797 110.027 18.5664 110.027 20.3633V26H108.972V14H110.027V16.6602H110.074C110.347 15.7461 110.781 15.0352 111.375 14.5273C111.968 14.0195 112.656 13.7656 113.437 13.7656C113.882 13.7656 114.281 13.8359 114.632 13.9766V15.125ZM129.709 22.3086C130.131 22.625 130.594 22.9121 131.098 23.1699C131.614 23.416 132.135 23.627 132.662 23.8027C133.201 23.9668 133.74 24.0957 134.28 24.1895C134.819 24.2715 135.334 24.3125 135.826 24.3125C137.737 24.3125 139.166 23.9434 140.115 23.2051C141.065 22.4668 141.539 21.4062 141.539 20.0234C141.539 19.3555 141.428 18.7754 141.205 18.2832C140.983 17.7793 140.637 17.3105 140.168 16.877C139.699 16.4434 139.108 16.0156 138.393 15.5938C137.678 15.1602 136.834 14.6738 135.862 14.1348C134.783 13.5488 133.858 12.998 133.084 12.4824C132.322 11.9551 131.696 11.4219 131.203 10.8828C130.723 10.332 130.365 9.74023 130.131 9.10742C129.908 8.47461 129.797 7.75391 129.797 6.94531C129.797 5.92578 130.014 5.01172 130.447 4.20312C130.881 3.39453 131.467 2.70898 132.205 2.14648C132.944 1.57227 133.805 1.13281 134.789 0.828125C135.785 0.523438 136.846 0.371094 137.971 0.371094C139.951 0.371094 141.61 0.646484 142.946 1.19727V3.78125C141.457 2.92578 139.711 2.49805 137.707 2.49805C136.957 2.49805 136.248 2.5918 135.58 2.7793C134.924 2.95508 134.344 3.21875 133.84 3.57031C133.348 3.92188 132.955 4.36133 132.662 4.88867C132.381 5.4043 132.24 6.00781 132.24 6.69922C132.24 7.35547 132.334 7.92383 132.522 8.4043C132.721 8.87305 133.031 9.31836 133.453 9.74023C133.887 10.1621 134.449 10.584 135.141 11.0059C135.844 11.416 136.699 11.8906 137.707 12.4297C138.762 12.9922 139.682 13.543 140.467 14.082C141.252 14.6094 141.903 15.166 142.418 15.752C142.946 16.3262 143.338 16.9414 143.596 17.5977C143.854 18.2422 143.983 18.9629 143.983 19.7598C143.983 20.8613 143.778 21.834 143.367 22.6777C142.957 23.5098 142.383 24.2012 141.645 24.752C140.906 25.3027 140.028 25.7188 139.008 26C137.989 26.2812 136.869 26.4219 135.651 26.4219C135.252 26.4219 134.778 26.3867 134.227 26.3164C133.676 26.2578 133.119 26.1641 132.557 26.0352C131.994 25.918 131.455 25.7773 130.94 25.6133C130.436 25.4375 130.026 25.25 129.709 25.0508V22.3086ZM149.599 3.44727C149.166 3.44727 148.791 3.29492 148.474 2.99023C148.158 2.68555 148 2.29883 148 1.83008C148 1.37305 148.158 0.998047 148.474 0.705078C148.791 0.400391 149.166 0.248047 149.599 0.248047C149.822 0.248047 150.033 0.289062 150.232 0.371094C150.431 0.441406 150.601 0.546875 150.742 0.6875C150.894 0.828125 151.011 0.998047 151.093 1.19727C151.187 1.38477 151.234 1.5957 151.234 1.83008C151.234 2.05273 151.193 2.26367 151.111 2.46289C151.029 2.66211 150.912 2.83789 150.759 2.99023C150.607 3.13086 150.431 3.24219 150.232 3.32422C150.045 3.40625 149.834 3.44727 149.599 3.44727ZM148.492 26V8H150.742V26H148.492ZM171.054 24.6113C171.054 27.9512 170.292 30.4238 168.769 32.0293C167.257 33.6465 164.919 34.4551 161.755 34.4551C159.786 34.4551 157.923 34.0156 156.165 33.1367V30.8516C158.122 31.9414 159.985 32.4863 161.755 32.4863C166.454 32.4863 168.804 30.002 168.804 25.0332V22.8711H168.733C167.351 25.2383 165.241 26.4219 162.405 26.4219C161.292 26.4219 160.272 26.2168 159.347 25.8066C158.433 25.3965 157.647 24.8047 156.991 24.0312C156.335 23.2578 155.825 22.3203 155.462 21.2188C155.099 20.1055 154.917 18.8516 154.917 17.457C154.917 15.9805 155.11 14.6387 155.497 13.4316C155.884 12.2129 156.435 11.1699 157.149 10.3027C157.864 9.43555 158.726 8.76758 159.733 8.29883C160.753 7.81836 161.895 7.57812 163.161 7.57812C165.704 7.57812 167.561 8.60938 168.733 10.6719H168.804V8H171.054V24.6113ZM168.804 15.0664C168.804 14.3164 168.669 13.6074 168.399 12.9395C168.13 12.2715 167.755 11.6855 167.274 11.1816C166.794 10.6777 166.22 10.2793 165.552 9.98633C164.895 9.68164 164.169 9.5293 163.372 9.5293C162.435 9.5293 161.585 9.71094 160.823 10.0742C160.073 10.4375 159.429 10.9531 158.89 11.6211C158.362 12.2891 157.952 13.1035 157.659 14.0645C157.378 15.0137 157.237 16.0859 157.237 17.2812C157.237 18.3828 157.372 19.3789 157.642 20.2695C157.911 21.1602 158.292 21.916 158.784 22.5371C159.276 23.1582 159.868 23.6387 160.56 23.9785C161.263 24.3184 162.042 24.4883 162.897 24.4883C163.788 24.4883 164.597 24.3301 165.323 24.0137C166.05 23.6855 166.671 23.2402 167.186 22.6777C167.702 22.1035 168.101 21.4355 168.382 20.6738C168.663 19.9004 168.804 19.0684 168.804 18.1777V15.0664ZM188.641 26V15.6289C188.641 11.5625 187.164 9.5293 184.211 9.5293C183.426 9.5293 182.7 9.6875 182.032 10.0039C181.364 10.3086 180.784 10.7363 180.291 11.2871C179.811 11.8379 179.43 12.4941 179.149 13.2559C178.879 14.0059 178.744 14.8203 178.744 15.6992V26H176.494V8H178.744V11.1289H178.815C180.151 8.76172 182.16 7.57812 184.844 7.57812C186.813 7.57812 188.313 8.2168 189.344 9.49414C190.375 10.7715 190.891 12.6172 190.891 15.0312V26H188.641ZM207.74 26V22.9414H207.67C206.451 25.2617 204.558 26.4219 201.992 26.4219C197.715 26.4219 195.576 23.8086 195.576 18.582V8H197.826V18.1602C197.826 20.3164 198.207 21.9102 198.968 22.9414C199.742 23.9727 200.92 24.4883 202.502 24.4883C203.275 24.4883 203.978 24.3418 204.611 24.0488C205.256 23.7441 205.806 23.3223 206.263 22.7832C206.732 22.2324 207.095 21.5762 207.353 20.8145C207.611 20.0527 207.74 19.209 207.74 18.2832V8H209.99V26H207.74ZM217.681 23.0996V34.2793H215.431V8H217.681V11.4453H217.751C218.419 10.1914 219.31 9.23633 220.423 8.58008C221.548 7.91211 222.814 7.57812 224.22 7.57812C225.368 7.57812 226.394 7.78906 227.296 8.21094C228.21 8.62109 228.978 9.20703 229.599 9.96875C230.231 10.7305 230.712 11.6562 231.04 12.7461C231.38 13.8359 231.55 15.0605 231.55 16.4199C231.55 17.9082 231.362 19.2676 230.987 20.498C230.612 21.7168 230.073 22.7656 229.37 23.6445C228.667 24.5234 227.812 25.209 226.804 25.7012C225.808 26.1816 224.683 26.4219 223.429 26.4219C220.898 26.4219 219.005 25.3145 217.751 23.0996H217.681ZM217.681 18.5117C217.681 19.332 217.815 20.1055 218.085 20.832C218.366 21.5469 218.753 22.1797 219.245 22.7305C219.737 23.2695 220.329 23.6973 221.021 24.0137C221.724 24.3301 222.497 24.4883 223.341 24.4883C224.243 24.4883 225.058 24.3008 225.784 23.9258C226.511 23.5391 227.126 22.9941 227.63 22.291C228.146 21.5879 228.538 20.7383 228.808 19.7422C229.089 18.7461 229.23 17.6328 229.23 16.4023C229.23 15.3477 229.101 14.3984 228.843 13.5547C228.585 12.6992 228.216 11.9727 227.735 11.375C227.267 10.7773 226.692 10.3203 226.013 10.0039C225.345 9.6875 224.595 9.5293 223.763 9.5293C222.825 9.5293 221.981 9.70508 221.231 10.0566C220.481 10.3965 219.843 10.8652 219.315 11.4629C218.788 12.0605 218.384 12.7637 218.103 13.5723C217.821 14.3691 217.681 15.2188 217.681 16.1211V18.5117Z" fill="black"/>
</svg>
