<svg width="80" height="80" viewBox="0 0 80 80" fill="none" xmlns="http://www.w3.org/2000/svg">
<path d="M40 33C41.4401 33 42.7982 33.2734 44.0742 33.8203C45.3503 34.3672 46.4622 35.1237 47.4102 36.0898C48.3763 37.0378 49.1328 38.1497 49.6797 39.4258C50.2266 40.7018 50.5 42.0599 50.5 43.5C50.5 44.9583 50.2266 46.3255 49.6797 47.6016C49.1328 48.8594 48.3763 49.9714 47.4102 50.9375C46.4622 51.8854 45.3503 52.6328 44.0742 53.1797C42.7982 53.7266 41.4401 54 40 54C38.5417 54 37.1745 53.7266 35.8984 53.1797C34.6406 52.6328 33.5286 51.8854 32.5625 50.9375C31.6146 49.9714 30.8672 48.8594 30.3203 47.6016C29.7734 46.3255 29.5 44.9583 29.5 43.5C29.5 42.0599 29.7734 40.7018 30.3203 39.4258C30.8672 38.1497 31.6146 37.0378 32.5625 36.0898C33.5286 35.1237 34.6406 34.3672 35.8984 33.8203C37.1745 33.2734 38.5417 33 40 33ZM40 50.5C40.9661 50.5 41.8685 50.3177 42.707 49.9531C43.5638 49.5885 44.3112 49.0872 44.9492 48.4492C45.5872 47.8112 46.0885 47.0729 46.4531 46.2344C46.8177 45.3776 47 44.4661 47 43.5C47 42.5339 46.8177 41.6315 46.4531 40.793C46.0885 39.9362 45.5872 39.1888 44.9492 38.5508C44.3112 37.9128 43.5638 37.4115 42.707 37.0469C41.8685 36.6823 40.9661 36.5 40 36.5C39.0339 36.5 38.1224 36.6823 37.2656 37.0469C36.4271 37.4115 35.6888 37.9128 35.0508 38.5508C34.4128 39.1888 33.9115 39.9362 33.5469 40.793C33.1823 41.6315 33 42.5339 33 43.5C33 44.4661 33.1823 45.3776 33.5469 46.2344C33.9115 47.0729 34.4128 47.8112 35.0508 48.4492C35.6888 49.0872 36.4271 49.5885 37.2656 49.9531C38.1224 50.3177 39.0339 50.5 40 50.5ZM40 19C42.6068 19 45.1953 19.3281 47.7656 19.9844C50.3359 20.6224 52.7604 21.5703 55.0391 22.8281C57.3177 24.0859 59.3776 25.6445 61.2188 27.5039C63.0781 29.3451 64.5911 31.4688 65.7578 33.875C66.487 35.388 67.043 36.9557 67.4258 38.5781C67.8086 40.1823 68 41.8229 68 43.5H64.5C64.5 41.349 64.1719 39.3346 63.5156 37.457C62.8594 35.5794 61.9479 33.8659 60.7812 32.3164C59.6328 30.7669 58.2747 29.3815 56.707 28.1602C55.1393 26.9388 53.444 25.9089 51.6211 25.0703C49.8164 24.2318 47.9206 23.5938 45.9336 23.1562C43.9466 22.7188 41.9688 22.5 40 22.5C38.0312 22.5 36.0534 22.7188 34.0664 23.1562C32.0794 23.5938 30.1745 24.2318 28.3516 25.0703C26.5469 25.9089 24.8607 26.9388 23.293 28.1602C21.7253 29.3815 20.3581 30.7669 19.1914 32.3164C18.043 33.8659 17.1406 35.5794 16.4844 37.457C15.8281 39.3346 15.5 41.349 15.5 43.5H12C12 41.8229 12.1914 40.1823 12.5742 38.5781C12.957 36.9557 13.513 35.388 14.2422 33.875C15.4089 31.4688 16.9128 29.3451 18.7539 27.5039C20.6133 25.6445 22.6823 24.0859 24.9609 22.8281C27.2396 21.5703 29.6641 20.6224 32.2344 19.9844C34.8047 19.3281 37.3932 19 40 19Z" fill="#27AE60"/>
</svg>
