<svg width="400" height="478" viewBox="0 0 400 478" fill="none" xmlns="http://www.w3.org/2000/svg">
<rect width="400" height="478" fill="#F2F2F2"/>
<path d="M35.9141 24.4805H48.0078C48.6641 24.4805 49.3984 24.4336 50.2109 24.3398C50.1172 25.2617 50.0703 26.0273 50.0703 26.6367V42.7734C50.0859 43.6172 49.832 44.1836 49.3086 44.4727C48.8086 44.7773 47.75 44.9688 46.1328 45.0469C46.0547 44.4375 45.832 43.8359 45.4648 43.2422C46.3008 43.3594 46.957 43.418 47.4336 43.418C47.7383 43.418 47.9609 43.3945 48.1016 43.3477C48.5391 43.2461 48.7461 42.918 48.7227 42.3633V36.9844H42.6289V41.3555C42.6289 41.8945 42.6797 42.543 42.7812 43.3008H41.0938C41.1875 42.5117 41.2344 41.8633 41.2344 41.3555V36.9844H35.1406C35.0469 40.1328 34.0898 42.9961 32.2695 45.5742C31.8164 45.1602 31.2305 44.832 30.5117 44.5898C32.8164 42.7539 33.9219 39.5 33.8281 34.8281V26.5898C33.8281 25.9492 33.7773 25.1992 33.6758 24.3398C34.4492 24.4336 35.1953 24.4805 35.9141 24.4805ZM35.1641 31.6758V35.7891H41.2344V31.6758H35.1641ZM35.1641 25.6758V30.4805H41.2344V25.6758H35.1641ZM42.6289 31.6758V35.7891H48.7227V31.6758H42.6289ZM42.6289 25.6758V30.4805H48.7227V25.6758H42.6289ZM73.8125 27.5977C73.7266 28.4961 73.6758 29.2344 73.6602 29.8125V35.2852C73.6758 35.8867 73.7266 36.5898 73.8125 37.3945H72.1719C72.2578 36.9102 72.3086 36.3828 72.3242 35.8125H60.0781C59.875 40.1484 58.3711 43.5 55.5664 45.8672C55.1836 45.5 54.6328 45.1133 53.9141 44.707C57.1094 43.0273 58.707 39.6055 58.707 34.4414V29.9297C58.6914 29.2734 58.6445 28.4961 58.5664 27.5977C59.5273 27.6758 60.2969 27.7227 60.875 27.7383H71.3633C71.8555 27.7383 72.6719 27.6914 73.8125 27.5977ZM60.0547 28.9453V34.6055H72.3242V28.9453H60.0547ZM61.9531 24.3398L62.7383 23.0391C64.1836 23.8047 65.8828 24.7891 67.8359 25.9922L66.9453 27.3398C65.2344 26.1523 63.5703 25.1523 61.9531 24.3398ZM77.4805 33.4336C80.0273 31.4492 82.0586 28.0664 83.5742 23.2852L85.3789 24.0938C85.5039 24.1562 85.5586 24.2188 85.543 24.2812C85.5273 24.3359 85.4414 24.4102 85.2852 24.5039C84.8945 24.7461 84.5391 25.2422 84.2188 25.9922C83.7422 27.1094 83.3359 27.9492 83 28.5117V43.418C83.0156 43.9102 83.0625 44.6602 83.1406 45.668H81.5117C81.5898 44.7617 81.6367 44.0117 81.6523 43.418V31.0312C80.9336 32.1875 80.1758 33.3242 79.3789 34.4414C78.9414 34.1055 78.3086 33.7695 77.4805 33.4336ZM84.6523 28.4883V27C85.3711 27.0781 85.9805 27.125 86.4805 27.1406H93.2422C92.1562 26.1953 91.0156 25.2539 89.8203 24.3164L90.9453 23.1328C92.1953 24.0938 93.3867 25.0234 94.5195 25.9219L93.418 27.1406H98C98.4453 27.1406 99.1406 27.0938 100.086 27V28.4883C99.1406 28.4102 98.4453 28.3633 98 28.3477H86.4805C86.0352 28.3477 85.4258 28.3945 84.6523 28.4883ZM88.0859 45.668H86.4805C86.5586 44.8711 86.6055 44.1836 86.6211 43.6055V39.9141C86.6055 39.4609 86.5586 38.7578 86.4805 37.8047C87.6289 37.8984 88.4062 37.9453 88.8125 37.9453H95.5742C96.043 37.9453 96.8516 37.8984 98 37.8047C97.9219 38.5547 97.875 39.2656 97.8594 39.9375V43.4648C97.8594 43.8008 97.9062 44.4805 98 45.5039H96.3711C96.4648 44.8477 96.5117 44.3359 96.5117 43.9688H87.9688C87.9688 44.3047 88.0078 44.8711 88.0859 45.668ZM87.9688 39.1406V42.8203H96.5117V39.1406H87.9688ZM86.668 32.1328V30.6914C87.5039 30.793 88.1758 30.8438 88.6836 30.8438H96.1484C96.5703 30.8281 97.2344 30.7773 98.1406 30.6914V32.1328C97.3438 32.0547 96.6797 32.0078 96.1484 31.9922H88.6836C88.1602 32.0078 87.4883 32.0547 86.668 32.1328ZM86.668 35.6602V34.2188C87.4883 34.3047 88.1602 34.3555 88.6836 34.3711H96.1484C96.6328 34.3555 97.2969 34.3047 98.1406 34.2188V35.6602C97.2969 35.582 96.6328 35.5352 96.1484 35.5195H88.6836C88.2383 35.5352 87.5664 35.582 86.668 35.6602ZM102.031 43.2422C103.453 42.5391 104.621 41.0547 105.535 38.7891L107.07 39.5742C107.172 39.6211 107.223 39.6719 107.223 39.7266C107.223 39.75 107.211 39.7812 107.188 39.8203C107.172 39.8516 107.086 39.8906 106.93 39.9375C106.734 39.9688 106.484 40.2383 106.18 40.7461C105.445 41.9023 104.559 43.1055 103.52 44.3555C103.121 43.9336 102.625 43.5625 102.031 43.2422ZM111.535 23.4023L113.41 23.9766C113.598 24.0391 113.691 24.0938 113.691 24.1406C113.691 24.2031 113.605 24.2695 113.434 24.3398C113.113 24.4805 112.855 24.75 112.66 25.1484C112.457 25.6016 112.242 26.043 112.016 26.4727H118.016C118.656 26.4727 119.336 26.4258 120.055 26.332C119.961 26.957 119.914 27.5938 119.914 28.2422V35.1562C119.914 35.8281 119.961 36.4844 120.055 37.125C119.367 37.0312 118.648 36.9844 117.898 36.9844H108.605C107.887 36.9844 107.168 37.0312 106.449 37.125C106.543 36.4844 106.59 35.8359 106.59 35.1797V28.3242C106.59 27.668 106.543 27.0039 106.449 26.332C107.215 26.4258 107.887 26.4727 108.465 26.4727H110.598C111.012 25.6367 111.324 24.6133 111.535 23.4023ZM107.938 33.9141V35.7891H118.566V33.9141H107.938ZM107.938 30.7969V32.707H118.566V30.7969H107.938ZM118.566 29.5898V27.668H107.938V29.5898H118.566ZM117.324 40.9453C117.879 41.3281 118.461 41.6094 119.07 41.7891C118.688 43.1641 118.297 44.0195 117.898 44.3555C117.516 44.7539 116.73 44.9922 115.543 45.0703C114.793 45.1172 113.93 45.1406 112.953 45.1406C111.992 45.1406 111.246 45.1094 110.715 45.0469C109.887 44.9688 109.344 44.7617 109.086 44.4258C108.797 44.1211 108.66 43.543 108.676 42.6914V41.0391C108.676 40.3516 108.629 39.543 108.535 38.6133L110.293 38.9062C110.48 38.9375 110.574 38.9922 110.574 39.0703C110.59 39.1484 110.52 39.2773 110.363 39.457C110.137 39.6836 110.023 40.2109 110.023 41.0391V42.5273C110.016 42.5977 110.012 42.6719 110.012 42.75C110.012 43.4141 110.406 43.7305 111.195 43.6992C112 43.7695 112.801 43.8047 113.598 43.8047C114.402 43.8047 114.98 43.7773 115.332 43.7227C116.176 43.6133 116.703 43.3906 116.914 43.0547C117.156 42.7812 117.293 42.0781 117.324 40.9453ZM111.723 38.6133L112.836 37.6523C113.859 38.6133 114.824 39.582 115.73 40.5586L114.559 41.6367C113.824 40.5508 112.879 39.543 111.723 38.6133ZM118.707 39.7148L119.82 38.6367C121.062 39.9492 122.309 41.3594 123.559 42.8672L122.293 43.9219C121.246 42.3672 120.051 40.9648 118.707 39.7148Z" fill="black"/>
<path d="M40.4 79.2C36.7604 79.2 33.8 76.2396 33.8 72.6C33.8 68.9604 36.7604 66 40.4 66C44.0396 66 47 68.9604 47 72.6C47 76.2396 44.0396 79.2 40.4 79.2ZM40.4 67.2C37.4228 67.2 35 69.6228 35 72.6C35 75.5772 37.4228 78 40.4 78C43.3772 78 45.8 75.5772 45.8 72.6C45.8 69.6228 43.3772 67.2 40.4 67.2V67.2ZM50 90H30.8C29.8076 90 29 89.1924 29 88.2C29 88.1184 29.0168 86.178 30.47 84.24C31.316 83.112 32.474 82.2156 33.9128 81.5772C35.6696 80.796 37.8524 80.4 40.4 80.4C42.9476 80.4 45.1304 80.796 46.8872 81.5772C48.326 82.2168 49.484 83.112 50.33 84.24C51.7832 86.178 51.8 88.1184 51.8 88.2C51.8 89.1924 50.9924 90 50 90ZM40.4 81.6C36.2156 81.6 33.128 82.7436 31.4708 84.9072C30.2288 86.5284 30.2012 88.1856 30.2 88.2024C30.2006 88.3611 30.2641 88.5131 30.3766 88.6251C30.489 88.7371 30.6413 88.8 30.8 88.8H50C50.1591 88.8 50.3117 88.7368 50.4243 88.6243C50.5368 88.5117 50.6 88.3591 50.6 88.2C50.6 88.1856 50.5724 86.5284 49.3292 84.9072C47.6708 82.7436 44.5832 81.6 40.4 81.6Z" fill="black"/>
<path d="M97.9687 131.406L96 129.656L85.5 141.906L75 129.656L73.0312 131.406L82.6562 142.562H75.6563V145.187H84.1875V150.438H75.6563V153.062H84.1875V164H86.8125V153.062H95.3437V150.438H86.8125V145.187H95.3437V142.562H88.3438L97.9687 131.406Z" fill="black" fill-opacity="0.65"/>
<path d="M76.2861 186.093L77.0928 186.77C77.1885 186.852 77.2318 186.913 77.2227 186.954C77.2135 186.991 77.1475 187.022 77.0244 187.05C76.8011 187.086 76.5915 187.221 76.3955 187.453C75.835 188.096 75.0374 188.884 74.0029 189.818C73.7705 189.568 73.4674 189.331 73.0938 189.107C74.3333 188.451 75.3975 187.446 76.2861 186.093ZM74.2148 185.594V184.726C74.6523 184.78 75.0283 184.808 75.3428 184.808H78.7744V182.777H76.7031C76.4069 182.777 76.0286 182.805 75.5684 182.859V181.991C75.9967 182.05 76.375 182.08 76.7031 182.08H81.3242C81.6797 182.08 82.0716 182.05 82.5 181.991V182.859C82.0352 182.805 81.6432 182.777 81.3242 182.777H79.5605V184.808H82.8213C83.1221 184.808 83.4821 184.78 83.9014 184.726V185.594C83.5094 185.535 83.1449 185.505 82.8076 185.505H79.5605V188.841C79.5697 189.306 79.4147 189.627 79.0957 189.805C78.7812 190.001 78.1842 190.126 77.3047 190.181C77.2682 189.78 77.1475 189.399 76.9424 189.039C77.389 189.103 77.7513 189.135 78.0293 189.135C78.2161 189.135 78.3529 189.121 78.4395 189.094C78.6719 189.035 78.7835 188.852 78.7744 188.547V185.505H75.3291C75.0238 185.505 74.6523 185.535 74.2148 185.594ZM80.873 187.063L81.3789 186.25C82.7415 186.97 83.931 187.692 84.9473 188.417L84.3594 189.217C83.3704 188.415 82.2083 187.697 80.873 187.063ZM78.6924 177.049L79.6973 177.596C79.7747 177.646 79.8135 177.685 79.8135 177.712C79.8135 177.739 79.7702 177.771 79.6836 177.808C79.6198 177.835 79.5469 177.883 79.4648 177.951C81.0052 179.947 83.0628 181.221 85.6377 181.772C85.2913 182.041 85.0065 182.367 84.7832 182.75C82.1309 181.62 80.1712 180.209 78.9043 178.519C77.5143 180.442 75.6982 182.021 73.4561 183.256C73.2145 182.964 72.8932 182.698 72.4922 182.456C75.2357 181.485 77.3024 179.683 78.6924 177.049ZM89.7256 183.475C89.4521 183.251 89.1012 183.014 88.6729 182.764L89.2471 182.217C89.5934 182.422 89.9352 182.652 90.2725 182.907C90.6234 182.561 90.9583 182.094 91.2773 181.506H89.1104C88.6865 182.076 88.1624 182.732 87.5381 183.475C87.3604 183.279 87.071 183.108 86.6699 182.962C87.7819 182.151 88.6546 180.984 89.2881 179.462L90.1836 179.893C90.2884 179.938 90.3317 179.977 90.3135 180.009C90.2952 180.036 90.2155 180.073 90.0742 180.118C90.0013 180.155 89.917 180.225 89.8213 180.33C89.7848 180.394 89.7712 180.417 89.7803 180.398C89.6755 180.585 89.5957 180.729 89.541 180.829H91.5029C91.8402 180.829 92.2275 180.802 92.665 180.747C92.0954 181.772 91.4984 182.636 90.874 183.338C91.6579 183.889 92.4463 184.518 93.2393 185.225C92.9749 185.421 92.7699 185.623 92.624 185.833C92.0726 185.282 91.3161 184.637 90.3545 183.898C89.7119 184.514 89.0306 185.065 88.3105 185.553H91.0107C91.3024 185.553 91.6715 185.523 92.1182 185.464C92.0544 185.961 92.027 186.343 92.0361 186.612V188.431C92.0361 188.668 92.0635 188.978 92.1182 189.36H91.1953C91.25 189.132 91.2773 188.95 91.2773 188.813H88.9258C88.9258 188.991 88.9531 189.258 89.0078 189.613H88.085C88.1396 189.208 88.167 188.866 88.167 188.588V186.182C88.167 186.022 88.1442 185.854 88.0986 185.676C87.8115 185.872 87.5267 186.054 87.2441 186.223C87.1257 185.922 86.8704 185.669 86.4785 185.464C87.6725 185.122 88.7549 184.459 89.7256 183.475ZM88.9258 186.223V188.171H91.2773V186.223H88.9258ZM87.0049 178.676C87.3786 178.74 87.7021 178.767 87.9756 178.758H90.3408C89.9762 178.329 89.541 177.878 89.0352 177.404L89.6094 176.912C90.1335 177.418 90.596 177.894 90.9971 178.341L90.4639 178.758H92.3574C92.6172 178.758 92.9294 178.73 93.2939 178.676C93.2301 178.986 93.2028 179.28 93.2119 179.558V179.797C93.2119 179.984 93.2393 180.259 93.2939 180.624H92.3711C92.4349 180.314 92.4622 180.038 92.4531 179.797V179.435H87.8457V179.824C87.8366 180.011 87.8662 180.282 87.9346 180.638H87.0049C87.0732 180.328 87.1029 180.057 87.0938 179.824V179.558C87.1029 179.307 87.0732 179.013 87.0049 178.676ZM92.0635 189.47C93.5674 189.023 94.5654 188.235 95.0576 187.104C95.4541 186.261 95.6523 185.024 95.6523 183.393C95.6523 182.868 95.6318 182.303 95.5908 181.697L96.7803 181.854C96.8258 181.864 96.8486 181.877 96.8486 181.896C96.8486 181.923 96.8258 181.959 96.7803 182.005C96.6117 182.183 96.5091 182.426 96.4727 182.736C96.418 185.152 96.1696 186.76 95.7275 187.562C95.3265 188.479 94.3649 189.395 92.8428 190.311C92.7061 190.019 92.4463 189.739 92.0635 189.47ZM98.6123 186.975H97.6621C97.7168 186.51 97.7441 186.129 97.7441 185.833V180.945H94.415V185.983C94.415 186.275 94.4424 186.621 94.4971 187.022H93.5469C93.6016 186.631 93.6289 186.284 93.6289 185.983V181.198C93.638 180.897 93.6107 180.551 93.5469 180.159C93.957 180.223 94.2965 180.25 94.5654 180.241H95.0576C95.29 179.544 95.4541 178.986 95.5498 178.566H93.9912C93.7588 178.557 93.4421 178.585 93.041 178.648V177.78C93.3874 177.844 93.695 177.871 93.9639 177.862H98.3457C98.569 177.862 98.8721 177.835 99.2549 177.78V178.648C98.8447 178.585 98.5417 178.557 98.3457 178.566H96.4316C96.2904 179.086 96.099 179.644 95.8574 180.241H97.5664C97.8353 180.241 98.1839 180.214 98.6123 180.159C98.5485 180.569 98.5212 180.938 98.5303 181.267V185.86C98.5303 186.193 98.5576 186.564 98.6123 186.975ZM96.7666 187.146C97.7191 187.893 98.5964 188.654 99.3984 189.429L98.7695 189.989C97.9857 189.16 97.1312 188.408 96.2061 187.733L96.7666 187.146Z" fill="black" fill-opacity="0.7"/>
<path d="M59.7051 273.346H57.6543C57.2598 273.346 56.8633 273.414 56.4648 273.551L56.043 272.883C56.3008 272.77 56.4922 272.617 56.6172 272.426C57.0586 271.746 57.4043 270.998 57.6543 270.182L58.5156 270.516C58.5977 270.547 58.6328 270.578 58.6211 270.609C58.6211 270.637 58.5703 270.674 58.4688 270.721C58.3086 270.791 58.1719 270.943 58.0586 271.178C57.8359 271.674 57.5762 272.197 57.2793 272.748H59.8691C60.084 271.814 60.1914 270.988 60.1914 270.27C60.1914 270.102 60.1855 269.939 60.1738 269.783L61.1348 269.93C61.2832 269.945 61.3496 269.969 61.334 270C61.3418 270.023 61.2578 270.111 61.082 270.264C60.9727 270.334 60.9004 270.543 60.8652 270.891C60.7559 271.695 60.6602 272.314 60.5781 272.748H65.0781C65.4141 272.748 65.7305 272.725 66.0273 272.678V273.422C65.7148 273.371 65.3984 273.346 65.0781 273.346H60.4375C60.3086 273.795 60.1484 274.287 59.957 274.822H63.4258C63.7852 274.822 64.1328 274.799 64.4688 274.752C63.9102 276.119 63.1895 277.268 62.3066 278.197C63.6426 279.084 65.0117 279.559 66.4141 279.621C66.1641 279.887 65.9473 280.191 65.7637 280.535C64.3809 280.199 63.0449 279.576 61.7559 278.666C60.4512 279.584 59.0664 280.268 57.6016 280.717C57.4414 280.443 57.2266 280.18 56.957 279.926C58.6758 279.652 60.0996 279.072 61.2285 278.186C60.6504 277.6 60.1426 276.936 59.7051 276.193L60.4375 275.795C60.5898 276.443 61.0293 277.088 61.7559 277.729C62.4512 277.104 62.9961 276.328 63.3906 275.402H59.6934C58.9551 276.953 57.8555 278.293 56.3945 279.422C56.1445 279.219 55.8594 279.039 55.5391 278.883C57.5859 277.871 58.9746 276.025 59.7051 273.346ZM62.3066 270.469L62.7871 269.953C63.4824 270.551 64.1426 271.146 64.7676 271.74L64.2871 272.268C63.7207 271.678 63.0605 271.078 62.3066 270.469ZM67.5508 276.504C69.2539 275.633 70.5469 274.213 71.4297 272.244H68.9336C68.6602 272.244 68.3125 272.268 67.8906 272.314V271.57C68.3047 271.621 68.6484 271.646 68.9219 271.646H71.6699C72.0137 270.779 72.1973 270.102 72.2207 269.613L73.2051 269.842C73.2754 269.857 73.3105 269.895 73.3105 269.953C73.3027 270 73.2598 270.047 73.1816 270.094C72.9824 270.191 72.8379 270.389 72.748 270.686C72.709 270.822 72.6445 271.014 72.5547 271.26C72.5 271.428 72.457 271.557 72.4258 271.646H77.2246C77.584 271.639 77.9199 271.613 78.2324 271.57V272.314C77.8965 272.275 77.5605 272.252 77.2246 272.244H72.1973C71.7949 273.092 71.3906 273.816 70.9844 274.418H73.2988V274.066C73.291 273.66 73.2676 273.266 73.2285 272.883L74.1895 273C74.2363 273.035 74.2598 273.072 74.2598 273.111C74.2598 273.162 74.2246 273.217 74.1543 273.275C74.0332 273.373 73.9727 273.648 73.9727 274.102V274.418H76.252C76.5801 274.41 76.916 274.385 77.2598 274.342C77.2207 274.686 77.1973 275.014 77.1895 275.326V277.811C77.2129 278.49 77.1035 278.895 76.8613 279.023C76.6855 279.199 76.0898 279.32 75.0742 279.387C75.0898 279.059 74.9941 278.738 74.7871 278.426C75.2559 278.477 75.6113 278.502 75.8535 278.502C76.0332 278.502 76.1621 278.488 76.2402 278.461C76.4395 278.422 76.5312 278.238 76.5156 277.91V275.016H73.9727V279.756C73.9805 280.076 74.0039 280.428 74.043 280.811H73.2285C73.2676 280.436 73.291 280.088 73.2988 279.768V275.016H70.9844V278.496C70.9922 278.816 71.0156 279.145 71.0547 279.48H70.2402C70.2793 279.129 70.3027 278.801 70.3105 278.496V275.244C69.7754 275.877 69.1367 276.5 68.3945 277.113C68.207 276.906 67.9258 276.703 67.5508 276.504ZM85.6094 274.213H80.9102C80.6289 274.221 80.3008 274.244 79.9258 274.283V273.539C80.3008 273.578 80.6289 273.602 80.9102 273.609H84.5781V272.016H82.457C82.207 272.023 81.8828 272.047 81.4844 272.086V271.342C81.875 271.385 82.1992 271.41 82.457 271.418H84.5781V270.65C84.5703 270.361 84.5469 270.016 84.5078 269.613L85.3867 269.736C85.4492 269.744 85.4805 269.773 85.4805 269.824C85.4805 269.871 85.4492 269.922 85.3867 269.977C85.3047 270 85.2676 270.268 85.2754 270.779V271.418H87.3496C87.6699 271.402 87.9863 271.377 88.2988 271.342V272.004C88.6504 271.668 88.9707 271.264 89.2598 270.791L90.0391 271.559C90.0898 271.609 90.1152 271.65 90.1152 271.682C90.1152 271.689 90.1133 271.697 90.1094 271.705C90.1016 271.736 90.0469 271.756 89.9453 271.764C89.7188 271.771 89.4629 271.904 89.1777 272.162C88.6895 272.592 88.1289 273.074 87.4961 273.609H89.5234C89.7969 273.602 90.1172 273.578 90.4844 273.539V274.283C90.1172 274.244 89.7969 274.221 89.5234 274.213H86.834C86.0254 274.795 85.2656 275.283 84.5547 275.678H87.6309C87.9668 275.67 88.3223 275.645 88.6973 275.602C88.6582 275.98 88.6328 276.316 88.6211 276.609V279.721C88.6328 280.002 88.6582 280.361 88.6973 280.799H87.8828C87.9219 280.494 87.9453 280.234 87.9531 280.02H83.4766C83.4844 280.25 83.5078 280.533 83.5469 280.869H82.7207C82.7598 280.486 82.7832 280.135 82.791 279.814V276.586C81.959 276.98 81.043 277.373 80.043 277.764C79.9219 277.443 79.7148 277.16 79.4219 276.914C81.4297 276.562 83.4922 275.662 85.6094 274.213ZM83.4648 278.098V279.469H87.9531V278.098H83.4648ZM83.4648 276.252V277.523H87.9531V276.252H83.4648ZM85.2754 272.016V273.609H86.3418C87.0215 273.141 87.6465 272.633 88.2168 272.086C87.959 272.055 87.666 272.031 87.3379 272.016H85.2754Z" fill="black" fill-opacity="0.7"/>
<path d="M72.5 252.75C68.5092 252.75 65.2632 249.666 65.2632 245.875C65.2632 242.084 68.5092 239 72.5 239C76.4908 239 79.7368 242.084 79.7368 245.875C79.7368 249.666 76.4908 252.75 72.5 252.75ZM72.5 240.25C69.2355 240.25 66.5789 242.774 66.5789 245.875C66.5789 248.976 69.2355 251.5 72.5 251.5C75.7645 251.5 78.4211 248.976 78.4211 245.875C78.4211 242.774 75.7645 240.25 72.5 240.25V240.25ZM83.0263 264H61.9737C60.8855 264 60 263.159 60 262.125C60 262.04 60.0184 260.019 61.6118 258C62.5395 256.825 63.8092 255.891 65.3868 255.226C67.3132 254.412 69.7066 254 72.5 254C75.2934 254 77.6868 254.412 79.6132 255.226C81.1908 255.892 82.4605 256.825 83.3882 258C84.9816 260.019 85 262.04 85 262.125C85 263.159 84.1145 264 83.0263 264ZM72.5 255.25C67.9118 255.25 64.5263 256.441 62.7092 258.695C61.3474 260.384 61.3171 262.11 61.3158 262.128C61.3165 262.293 61.3861 262.451 61.5094 262.568C61.6327 262.684 61.7997 262.75 61.9737 262.75H83.0263C83.2008 262.75 83.3681 262.684 83.4915 262.567C83.6149 262.45 83.6842 262.291 83.6842 262.125C83.6842 262.11 83.6539 260.384 82.2908 258.695C80.4724 256.441 77.0868 255.25 72.5 255.25Z" fill="black" fill-opacity="0.65"/>
<path d="M141.949 273.012C143.316 272.211 144.447 271.092 145.342 269.654L146.174 269.977C146.283 270.016 146.334 270.057 146.326 270.1C146.318 270.139 146.256 270.178 146.139 270.217C146.01 270.248 145.904 270.312 145.822 270.41C145.705 270.535 145.582 270.666 145.453 270.803H148.354C148.674 270.803 149.062 270.779 149.52 270.732C148.969 271.42 148.369 272.191 147.721 273.047H149.654C150.076 273.055 150.455 273.035 150.791 272.988C150.736 273.438 150.713 273.812 150.721 274.113V277.383C150.721 277.684 150.744 278.027 150.791 278.414H149.93C149.977 277.996 150 277.646 150 277.365V273.65H144.41V277.5C144.41 277.781 144.434 278.117 144.48 278.508H143.613C143.664 278.059 143.689 277.715 143.689 277.477V274.02C143.689 273.738 143.664 273.391 143.613 272.977C144.031 273.023 144.363 273.047 144.609 273.047H146.842C147.244 272.566 147.66 272.02 148.09 271.406H144.973C144.348 272.109 143.607 272.84 142.752 273.598C142.506 273.352 142.238 273.156 141.949 273.012ZM146.654 274.406L147.598 274.559C147.695 274.574 147.744 274.602 147.744 274.641C147.744 274.676 147.699 274.729 147.609 274.799C147.5 274.881 147.441 275.049 147.434 275.303C147.418 277.08 147.158 278.252 146.654 278.818C145.963 279.604 144.746 280.309 143.004 280.934C142.844 280.613 142.627 280.328 142.354 280.078C144.268 279.758 145.564 279.094 146.244 278.086C146.549 277.535 146.701 276.703 146.701 275.59C146.701 275.207 146.686 274.812 146.654 274.406ZM147.41 278.865L147.791 278.15C149.166 278.74 150.518 279.379 151.846 280.066L151.453 280.846C150.363 280.158 149.016 279.498 147.41 278.865ZM154.822 273.697H158.713V272.854H156.299C155.979 272.854 155.646 272.879 155.303 272.93V272.186C155.662 272.232 155.994 272.256 156.299 272.256H158.713V271.535H155.268C154.963 271.535 154.631 271.559 154.271 271.605V270.861C154.646 270.912 154.979 270.938 155.268 270.938H158.713V270.621C158.713 270.344 158.689 269.988 158.643 269.555L159.574 269.689C159.664 269.697 159.713 269.717 159.721 269.748C159.729 269.771 159.701 269.811 159.639 269.865C159.479 269.994 159.402 270.246 159.41 270.621V270.938H162.891C163.234 270.938 163.566 270.912 163.887 270.861V271.605C163.539 271.559 163.207 271.535 162.891 271.535H159.41V272.256H161.783C162.111 272.256 162.436 272.232 162.756 272.186V272.93C162.42 272.879 162.096 272.854 161.783 272.854H159.41V273.697H163.295C163.639 273.697 163.967 273.672 164.279 273.621V274.365C163.928 274.318 163.6 274.295 163.295 274.295H154.822C154.529 274.295 154.197 274.318 153.826 274.365V273.621C154.186 273.672 154.518 273.697 154.822 273.697ZM158.531 276.229L159.369 276.41C159.498 276.441 159.562 276.477 159.562 276.516C159.57 276.562 159.516 276.631 159.398 276.721C159.277 276.768 159.189 276.971 159.135 277.33C158.924 279.193 157.363 280.395 154.453 280.934C154.309 280.652 154.092 280.379 153.803 280.113C156.967 279.941 158.549 278.773 158.549 276.609C158.549 276.504 158.543 276.377 158.531 276.229ZM162.504 275.051C162.457 275.387 162.434 275.723 162.434 276.059V277.406C162.434 277.727 162.457 278.078 162.504 278.461H161.689C161.736 278.094 161.76 277.742 161.76 277.406V275.725H156.287V277.57C156.287 277.906 156.311 278.254 156.357 278.613H155.543C155.59 278.27 155.613 277.922 155.613 277.57V276.059C155.613 275.77 155.59 275.434 155.543 275.051C155.953 275.098 156.322 275.121 156.65 275.121H161.426C161.77 275.121 162.129 275.098 162.504 275.051ZM159.445 278.83L159.85 278.197C161.307 278.947 162.555 279.623 163.594 280.225L163.113 280.945C162.098 280.207 160.875 279.502 159.445 278.83ZM165.369 279.539C168.791 278.559 170.502 275.834 170.502 271.365C170.502 270.959 170.488 270.543 170.461 270.117L171.504 270.299C171.594 270.314 171.643 270.344 171.65 270.387C171.666 270.426 171.637 270.473 171.562 270.527C171.434 270.656 171.354 270.824 171.322 271.031C171.318 271.141 171.316 271.281 171.316 271.453C171.316 275.023 172.998 277.76 176.361 279.662C176.061 279.756 175.781 279.975 175.523 280.318C173.262 278.975 171.746 276.951 170.977 274.248C170.457 277.01 168.842 279.021 166.131 280.283C165.896 279.924 165.643 279.676 165.369 279.539Z" fill="black" fill-opacity="0.7"/>
<path d="M160.307 255.091C160.307 254.857 160.011 254.474 159.53 253.846H157.465C156.986 254.471 156.691 254.857 156.691 255.091C156.71 255.348 157.265 256.471 157.77 257.12C157.338 259.044 156.83 260.477 156.83 262.154C156.83 262.728 158.097 263.919 158.478 263.951H158.52C158.898 263.922 160.167 262.728 160.167 262.154C160.167 260.477 159.657 259.044 159.228 257.12C159.735 256.466 160.287 255.345 160.307 255.091V255.091ZM158.5 240.55C159.962 240.55 161.337 241.119 162.372 242.154C163.407 243.189 163.976 244.564 163.976 246.026C163.976 247.489 163.405 248.863 162.372 249.896C161.337 250.931 159.962 251.5 158.5 251.5C157.038 251.5 155.663 250.931 154.628 249.896C153.593 248.861 153.024 247.486 153.024 246.024C153.024 244.562 153.593 243.187 154.628 242.152C155.663 241.119 157.038 240.55 158.5 240.55V240.55ZM158.5 239C154.621 239 151.476 242.145 151.476 246.024C151.476 249.903 154.621 253.05 158.5 253.05C162.379 253.05 165.524 249.906 165.524 246.026C165.524 242.147 162.379 239 158.5 239Z" fill="black" fill-opacity="0.65"/>
<path d="M171 264H169.442C169.442 257.967 164.533 253.058 158.5 253.058C152.467 253.058 147.558 257.967 147.558 264H146C146 262.313 146.33 260.675 146.981 259.134C147.611 257.645 148.515 256.31 149.662 255.162C150.81 254.015 152.147 253.114 153.634 252.484C155.175 251.83 156.813 251.5 158.5 251.5C160.187 251.5 161.825 251.83 163.366 252.481C164.855 253.111 166.19 254.015 167.338 255.162C168.485 256.31 169.386 257.647 170.016 259.134C170.67 260.675 171 262.313 171 264Z" fill="black" fill-opacity="0.65"/>
<path d="M225.346 275.965C226.178 275.539 226.967 274.783 227.713 273.697H226.477C226.172 273.697 225.859 273.721 225.539 273.768V273.07C225.875 273.121 226.188 273.146 226.477 273.146H228.17V271.102C227.568 271.223 226.908 271.332 226.189 271.43C226.076 271.141 225.928 270.889 225.744 270.674C225.854 270.678 226.014 270.68 226.225 270.68C227.557 270.68 228.781 270.477 229.898 270.07L230.35 270.662C230.439 270.771 230.477 270.838 230.461 270.861C230.457 270.881 230.436 270.891 230.396 270.891C230.361 270.891 230.318 270.885 230.268 270.873C230.186 270.85 230.1 270.838 230.01 270.838C229.912 270.838 229.811 270.85 229.705 270.873C229.689 270.873 229.656 270.879 229.605 270.891C229.312 270.945 229.049 270.984 228.814 271.008V273.146H229.646C229.998 273.146 230.305 273.121 230.566 273.07V273.768C230.281 273.721 229.975 273.697 229.646 273.697H228.814V274.693C228.814 274.998 228.84 275.318 228.891 275.654H228.094C228.145 275.342 228.17 275.021 228.17 274.693V274.102C227.826 274.605 227.305 275.223 226.605 275.953C226.926 275.992 227.219 276.012 227.484 276.012H229.559C229.84 276.012 230.141 275.988 230.461 275.941C230.414 276.211 230.391 276.482 230.391 276.756V279.756C230.391 280.068 230.414 280.373 230.461 280.67H229.67C229.725 280.389 229.748 280.184 229.74 280.055H227.15C227.15 280.207 227.174 280.443 227.221 280.764H226.43C226.477 280.443 226.5 280.111 226.5 279.768V276.973C226.5 276.723 226.48 276.447 226.441 276.146C226.312 276.279 226.176 276.395 226.031 276.492C225.855 276.301 225.627 276.125 225.346 275.965ZM227.15 278.314V279.504H228.146V278.314H227.15ZM227.15 276.562V277.764H228.146V276.562H227.15ZM228.791 278.314V279.504H229.74V278.314H228.791ZM228.791 276.562V277.764H229.74V276.562H228.791ZM228.891 274.441L229.354 273.973C229.986 274.531 230.562 275.078 231.082 275.613L230.643 276.105C230.08 275.5 229.496 274.945 228.891 274.441ZM226.418 271.898L226.992 271.559C227.238 271.863 227.49 272.232 227.748 272.666L227.174 272.977C226.963 272.594 226.711 272.234 226.418 271.898ZM229.008 272.666C229.383 272.201 229.635 271.764 229.764 271.354L230.414 271.74C230.492 271.779 230.527 271.811 230.52 271.834C230.512 271.869 230.465 271.902 230.379 271.934C230.234 271.98 230.125 272.068 230.051 272.197C229.93 272.389 229.758 272.645 229.535 272.965C229.398 272.844 229.223 272.744 229.008 272.666ZM231.322 272.941C231.604 273.477 231.877 274.072 232.143 274.729L231.551 275.051C231.336 274.445 231.068 273.838 230.748 273.229L231.322 272.941ZM234 272.883C234.359 273.465 234.676 274.049 234.949 274.635L234.369 274.969C234.076 274.289 233.773 273.697 233.461 273.193L234 272.883ZM233.268 277.236C233.971 276.627 234.65 275.922 235.307 275.121V271.271H234.516C234.203 271.271 233.859 271.295 233.484 271.342V270.621C233.844 270.672 234.188 270.697 234.516 270.697H235.055C235.383 270.697 235.707 270.672 236.027 270.621C235.98 271 235.957 271.316 235.957 271.57V279.322C235.973 279.877 235.873 280.217 235.658 280.342C235.482 280.51 234.986 280.619 234.17 280.67C234.088 280.42 233.967 280.139 233.807 279.826C234.057 279.846 234.27 279.855 234.445 279.855C234.734 279.855 234.934 279.83 235.043 279.779C235.234 279.717 235.322 279.537 235.307 279.24V276.023C234.635 276.77 234.127 277.373 233.783 277.834L233.268 277.236ZM230.602 277.248C231.195 276.775 231.809 276.156 232.441 275.391V271.295H231.814C231.518 271.295 231.178 271.318 230.795 271.365V270.65C231.189 270.697 231.529 270.721 231.814 270.721H232.201C232.521 270.721 232.842 270.697 233.162 270.65C233.111 271.01 233.086 271.316 233.086 271.57V279.287C233.102 279.807 233.002 280.139 232.787 280.283C232.596 280.451 232.1 280.58 231.299 280.67C231.221 280.389 231.09 280.092 230.906 279.779C231.258 279.811 231.527 279.826 231.715 279.826C231.945 279.826 232.104 279.807 232.189 279.768C232.373 279.713 232.457 279.525 232.441 279.205V276.357C231.801 277.006 231.355 277.51 231.105 277.869L230.602 277.248ZM239.941 274.283L239.865 278.918C240.244 278.645 240.594 278.324 240.914 277.957C240.961 278.227 241.033 278.467 241.131 278.678C240.385 279.268 239.828 279.768 239.461 280.178C239.262 279.936 239.064 279.715 238.869 279.516C239.072 279.379 239.182 279.195 239.197 278.965L239.268 274.09H238.395C238.066 274.09 237.742 274.115 237.422 274.166V273.422C237.742 273.469 238.066 273.492 238.395 273.492H239.016C239.352 273.492 239.684 273.469 240.012 273.422C239.965 273.66 239.941 273.947 239.941 274.283ZM238.271 270.434L238.775 269.93C239.447 270.48 240.062 271.049 240.621 271.635L240.105 272.186C239.516 271.529 238.904 270.945 238.271 270.434ZM243.838 272.83C243.049 272.232 242.426 271.514 241.969 270.674C241.617 270.682 241.324 270.705 241.09 270.744V270C241.379 270.047 241.699 270.07 242.051 270.07H246.082C246.441 270.07 246.781 270.047 247.102 270C246.465 271.09 245.762 272.018 244.992 272.783C246.223 273.455 247.406 273.836 248.543 273.926C248.207 274.18 247.979 274.471 247.857 274.799C246.572 274.385 245.43 273.877 244.43 273.275C243.477 274.061 242.316 274.709 240.949 275.221C240.828 274.893 240.615 274.633 240.311 274.441C241.545 274.289 242.721 273.752 243.838 272.83ZM245.854 270.674H242.736C243.018 271.225 243.57 271.797 244.395 272.391C244.906 271.926 245.393 271.354 245.854 270.674ZM244.131 277.523V276.205H242.643C242.307 276.205 241.982 276.229 241.67 276.275V275.531C241.932 275.578 242.256 275.602 242.643 275.602H244.131V274.957C244.131 274.891 244.113 274.678 244.078 274.318C244.07 274.166 244.062 274.059 244.055 273.996L244.969 274.113C245.062 274.133 245.113 274.158 245.121 274.189C245.133 274.221 245.094 274.256 245.004 274.295C244.859 274.334 244.791 274.594 244.799 275.074V275.602H246.369C246.732 275.602 247.064 275.578 247.365 275.531V276.275C247.08 276.229 246.758 276.205 246.398 276.205H244.799V277.523H247.131C247.482 277.523 247.809 277.5 248.109 277.453V278.197C247.781 278.146 247.463 278.121 247.154 278.121H244.799V279.721C244.799 280.041 244.822 280.361 244.869 280.682H244.055C244.105 280.346 244.131 280.025 244.131 279.721V278.121H242.15C241.83 278.121 241.51 278.146 241.189 278.197V277.453C241.533 277.5 241.854 277.523 242.15 277.523H244.131ZM255.609 274.213H250.91C250.629 274.221 250.301 274.244 249.926 274.283V273.539C250.301 273.578 250.629 273.602 250.91 273.609H254.578V272.016H252.457C252.207 272.023 251.883 272.047 251.484 272.086V271.342C251.875 271.385 252.199 271.41 252.457 271.418H254.578V270.65C254.57 270.361 254.547 270.016 254.508 269.613L255.387 269.736C255.449 269.744 255.48 269.773 255.48 269.824C255.48 269.871 255.449 269.922 255.387 269.977C255.305 270 255.268 270.268 255.275 270.779V271.418H257.35C257.67 271.402 257.986 271.377 258.299 271.342V272.004C258.65 271.668 258.971 271.264 259.26 270.791L260.039 271.559C260.09 271.609 260.115 271.65 260.115 271.682C260.115 271.689 260.113 271.697 260.109 271.705C260.102 271.736 260.047 271.756 259.945 271.764C259.719 271.771 259.463 271.904 259.178 272.162C258.689 272.592 258.129 273.074 257.496 273.609H259.523C259.797 273.602 260.117 273.578 260.484 273.539V274.283C260.117 274.244 259.797 274.221 259.523 274.213H256.834C256.025 274.795 255.266 275.283 254.555 275.678H257.631C257.967 275.67 258.322 275.645 258.697 275.602C258.658 275.98 258.633 276.316 258.621 276.609V279.721C258.633 280.002 258.658 280.361 258.697 280.799H257.883C257.922 280.494 257.945 280.234 257.953 280.02H253.477C253.484 280.25 253.508 280.533 253.547 280.869H252.721C252.76 280.486 252.783 280.135 252.791 279.814V276.586C251.959 276.98 251.043 277.373 250.043 277.764C249.922 277.443 249.715 277.16 249.422 276.914C251.43 276.562 253.492 275.662 255.609 274.213ZM253.465 278.098V279.469H257.953V278.098H253.465ZM253.465 276.252V277.523H257.953V276.252H253.465ZM255.275 272.016V273.609H256.342C257.021 273.141 257.646 272.633 258.217 272.086C257.959 272.055 257.666 272.031 257.338 272.016H255.275Z" fill="black" fill-opacity="0.7"/>
<path d="M249.866 260.875H235.134C234.026 260.875 233.125 259.974 233.125 258.866V244.134C233.125 243.026 234.026 242.125 235.134 242.125H242.5C242.932 242.125 243.281 242.474 243.281 242.906C243.281 243.338 242.932 243.688 242.5 243.688H235.134C234.893 243.688 234.688 243.893 234.688 244.134V258.866C234.688 259.107 234.893 259.312 235.134 259.312H249.866C250.107 259.312 250.312 259.107 250.312 258.866V251.5C250.312 251.068 250.662 250.719 251.094 250.719C251.526 250.719 251.875 251.068 251.875 251.5V258.866C251.875 259.974 250.974 260.875 249.866 260.875Z" fill="black" fill-opacity="0.65"/>
<path d="M249.59 243.817L250.186 244.413L243.096 251.5H242.5V250.904L249.59 243.817ZM249.59 242.157C249.25 242.157 248.911 242.286 248.652 242.545L240.938 250.26V251.737C240.938 252.469 241.531 253.063 242.263 253.063H243.74L251.455 245.348C251.973 244.83 251.973 243.99 251.455 243.473L250.527 242.545C250.269 242.286 249.929 242.157 249.59 242.157V242.157Z" fill="black" fill-opacity="0.65"/>
<path d="M315.139 269.508C315.826 269.98 316.441 270.436 316.984 270.873L316.551 271.395H319.914C320.266 271.395 320.613 271.369 320.957 271.318C320.91 271.678 320.887 272.002 320.887 272.291V272.414C320.887 272.727 320.91 273.051 320.957 273.387H320.143C320.189 273.051 320.213 272.727 320.213 272.414V271.992H311.887V272.473C311.887 272.762 311.91 273.094 311.957 273.469H311.143C311.189 273.109 311.213 272.777 311.213 272.473V272.303C311.213 272.014 311.189 271.686 311.143 271.318C311.502 271.369 311.854 271.395 312.197 271.395H316.41C315.945 270.984 315.354 270.551 314.635 270.094L315.139 269.508ZM312.109 273.598C312.496 273.648 312.846 273.674 313.158 273.674H315.689V273.357C315.689 273.021 315.664 272.65 315.613 272.244L316.551 272.373C316.641 272.385 316.689 272.406 316.697 272.438C316.697 272.461 316.66 272.496 316.586 272.543C316.426 272.609 316.35 272.881 316.357 273.357V273.674H318.895C319.195 273.674 319.547 273.648 319.949 273.598C319.902 273.969 319.879 274.293 319.879 274.57V278.062C319.879 278.398 319.902 278.746 319.949 279.105H319.135C319.182 278.836 319.205 278.598 319.205 278.391H316.357V279.949C316.357 280.277 316.383 280.621 316.434 280.98H315.613C315.664 280.621 315.689 280.277 315.689 279.949V278.391H312.854C312.854 278.621 312.879 278.877 312.93 279.158H312.109C312.16 278.822 312.186 278.482 312.186 278.139V274.617C312.186 274.301 312.16 273.961 312.109 273.598ZM312.854 276.322V277.787H315.689V276.322H312.854ZM312.854 274.271V275.725H315.689V274.271H312.854ZM316.357 277.787H319.205V276.322H316.357V277.787ZM316.357 274.271V275.725H319.205V274.271H316.357ZM326.213 278.098C327.58 277.684 328.832 276.775 329.969 275.373C328.84 275.416 328.084 275.492 327.701 275.602L327.379 274.74C327.672 274.643 327.943 274.438 328.193 274.125C328.658 273.551 329.018 272.963 329.271 272.361H327.748C327.443 272.369 327.111 272.395 326.752 272.438V271.693C327.119 271.732 327.451 271.756 327.748 271.764H332.523C332.828 271.756 333.148 271.732 333.484 271.693V272.438C333.141 272.395 332.82 272.369 332.523 272.361H329.57L330.174 272.643C330.244 272.674 330.275 272.709 330.268 272.748C330.252 272.787 330.203 272.814 330.121 272.83C329.945 272.881 329.773 273.029 329.605 273.275C329.223 273.818 328.811 274.342 328.369 274.846C329.01 274.83 329.658 274.814 330.314 274.799C330.619 274.385 330.855 273.934 331.023 273.445L331.861 273.973C331.92 274.012 331.941 274.053 331.926 274.096C331.91 274.135 331.861 274.158 331.779 274.166C331.588 274.221 331.416 274.367 331.264 274.605C330.326 276.328 328.875 277.713 326.91 278.76C326.805 278.514 326.572 278.293 326.213 278.098ZM328.639 270.146L329.113 269.59C329.797 270.07 330.422 270.57 330.988 271.09L330.484 271.682C329.926 271.096 329.311 270.584 328.639 270.146ZM332.078 275.15L332.91 275.625C332.988 275.676 333.023 275.721 333.016 275.76C333.008 275.799 332.955 275.83 332.857 275.854C332.697 275.904 332.543 276.053 332.395 276.299C332.051 276.877 331.678 277.426 331.275 277.945C331.947 278.473 332.668 279.064 333.438 279.721L332.91 280.395C332.371 279.746 331.674 279.098 330.818 278.449C329.787 279.375 328.58 280.17 327.197 280.834C326.99 280.533 326.75 280.281 326.477 280.078C329.262 279.289 331.129 277.646 332.078 275.15ZM324.426 273.059H323.646C323.381 273.066 323.061 273.092 322.686 273.135V272.391C323.053 272.43 323.373 272.453 323.646 272.461H324.508V270.85C324.5 270.541 324.477 270.174 324.438 269.748L325.322 269.865C325.381 269.877 325.414 269.906 325.422 269.953C325.422 270.008 325.393 270.051 325.334 270.082C325.225 270.098 325.174 270.367 325.182 270.891V272.461H325.445C325.758 272.453 326.086 272.43 326.43 272.391V273.135C326.086 273.092 325.762 273.066 325.457 273.059H325.182V273.586C325.787 274.117 326.379 274.697 326.957 275.326L326.465 275.965C326.082 275.402 325.654 274.883 325.182 274.406V279.826C325.189 280.139 325.213 280.492 325.252 280.887H324.438C324.477 280.5 324.5 280.146 324.508 279.826V274.775C324.082 275.873 323.654 276.826 323.225 277.635C322.967 277.506 322.688 277.416 322.387 277.365C323.121 276.568 323.801 275.133 324.426 273.059ZM334.369 279.539C337.791 278.559 339.502 275.834 339.502 271.365C339.502 270.959 339.488 270.543 339.461 270.117L340.504 270.299C340.594 270.314 340.643 270.344 340.65 270.387C340.666 270.426 340.637 270.473 340.562 270.527C340.434 270.656 340.354 270.824 340.322 271.031C340.318 271.141 340.316 271.281 340.316 271.453C340.316 275.023 341.998 277.76 345.361 279.662C345.061 279.756 344.781 279.975 344.523 280.318C342.262 278.975 340.746 276.951 339.977 274.248C339.457 277.01 337.842 279.021 335.131 280.283C334.896 279.924 334.643 279.676 334.369 279.539Z" fill="black" fill-opacity="0.7"/>
<path d="M327.5 252.75C323.509 252.75 320.263 249.666 320.263 245.875C320.263 242.084 323.509 239 327.5 239C331.491 239 334.737 242.084 334.737 245.875C334.737 249.666 331.491 252.75 327.5 252.75ZM327.5 240.25C324.236 240.25 321.579 242.774 321.579 245.875C321.579 248.976 324.236 251.5 327.5 251.5C330.764 251.5 333.421 248.976 333.421 245.875C333.421 242.774 330.764 240.25 327.5 240.25V240.25ZM338.026 264H316.974C315.886 264 315 263.159 315 262.125C315 262.04 315.018 260.019 316.612 258C317.539 256.825 318.809 255.891 320.387 255.226C322.313 254.412 324.707 254 327.5 254C330.293 254 332.687 254.412 334.613 255.226C336.191 255.892 337.461 256.825 338.388 258C339.982 260.019 340 262.04 340 262.125C340 263.159 339.114 264 338.026 264ZM327.5 255.25C322.912 255.25 319.526 256.441 317.709 258.695C316.347 260.384 316.317 262.11 316.316 262.128C316.316 262.293 316.386 262.451 316.509 262.568C316.633 262.684 316.8 262.75 316.974 262.75H338.026C338.201 262.75 338.368 262.684 338.492 262.567C338.615 262.45 338.684 262.291 338.684 262.125C338.684 262.11 338.654 260.384 337.291 258.695C335.472 256.441 332.087 255.25 327.5 255.25Z" fill="black" fill-opacity="0.65"/>
<g clip-path="url(#clip0)">
<path d="M199.401 146.146C207.665 146.146 213.896 143.477 213.896 139.938C213.896 136.399 207.665 133.73 199.401 133.73C191.137 133.73 184.905 136.399 184.905 139.938C184.905 143.477 191.137 146.146 199.401 146.146ZM199.401 135.297C207.02 135.297 212.329 137.743 212.329 139.938C212.329 142.133 207.02 144.58 199.401 144.58C191.781 144.58 186.472 142.133 186.472 139.938C186.472 137.743 191.781 135.297 199.401 135.297Z" fill="black" fill-opacity="0.65"/>
<path d="M199.4 152.723C207.642 152.723 213.856 150.071 213.856 146.554C213.856 145.625 213.407 144.761 212.617 143.986C212.612 143.981 212.608 143.975 212.603 143.97C212.597 143.964 212.593 143.958 212.588 143.953L212.584 143.957C212.457 143.84 212.29 143.765 212.105 143.765C211.71 143.765 211.39 144.085 211.39 144.479C211.39 144.688 211.483 144.872 211.626 145.002L211.623 145.006C212.1 145.485 212.369 146.07 212.369 146.554C212.369 148.768 207.043 151.235 199.4 151.235C191.758 151.235 186.432 148.768 186.432 146.554C186.432 146.002 186.587 145.53 187.195 144.993C187.202 144.986 187.21 144.98 187.217 144.973C187.222 144.969 187.225 144.965 187.23 144.961L187.227 144.958C187.344 144.831 187.419 144.664 187.419 144.478C187.419 144.083 187.099 143.764 186.705 143.764C186.508 143.764 186.329 143.844 186.2 143.973L186.196 143.969C185.396 144.748 184.945 145.619 184.945 146.554C184.945 150.07 191.159 152.723 199.4 152.723Z" fill="black" fill-opacity="0.65"/>
<path d="M212.61 150.517C212.605 150.511 212.601 150.505 212.595 150.5L212.591 150.504C212.464 150.388 212.298 150.312 212.112 150.312C211.717 150.312 211.398 150.632 211.398 151.027C211.398 151.235 211.491 151.419 211.633 151.55L211.631 151.553C212.107 152.032 212.376 152.618 212.376 153.101C212.376 155.316 207.05 157.783 199.408 157.783C191.765 157.783 186.439 155.316 186.439 153.101C186.439 152.55 186.595 152.077 187.202 151.54C187.21 151.533 187.217 151.527 187.224 151.52C187.229 151.516 187.232 151.512 187.237 151.508L187.234 151.505C187.351 151.378 187.426 151.211 187.426 151.025C187.426 150.631 187.107 150.311 186.712 150.311C186.515 150.311 186.336 150.391 186.207 150.52L186.203 150.516C185.403 151.295 184.952 152.166 184.952 153.101C184.952 156.618 191.167 159.27 199.408 159.27C207.649 159.27 213.863 156.618 213.863 153.101C213.863 152.173 213.415 151.308 212.625 150.533C212.62 150.528 212.616 150.522 212.61 150.517Z" fill="black" fill-opacity="0.65"/>
<path d="M190.785 189.066C192.02 188.328 193.105 186.904 194.039 184.794L194.962 185.368C195.071 185.441 195.126 185.493 195.126 185.525C195.126 185.553 195.067 185.58 194.948 185.607C194.734 185.607 194.445 185.933 194.08 186.585C193.538 187.519 192.749 188.561 191.715 189.709C191.405 189.445 191.095 189.23 190.785 189.066ZM192.904 184.151C192.95 183.636 192.977 183.226 192.986 182.921V179.093C192.977 178.751 192.95 178.341 192.904 177.862C193.415 177.908 193.857 177.938 194.23 177.951H197.17C197.462 177.951 197.929 177.922 198.571 177.862C198.526 178.386 198.498 178.787 198.489 179.065V182.921C198.498 183.19 198.526 183.6 198.571 184.151C197.947 184.092 197.489 184.062 197.197 184.062H194.244C193.889 184.076 193.442 184.106 192.904 184.151ZM193.745 178.648V183.365H197.73V178.648H193.745ZM199.535 188.991L198.756 189.538C197.895 188.057 197.031 186.681 196.165 185.409L196.903 184.951C197.596 185.986 198.473 187.332 199.535 188.991ZM189.138 181.711H188.099C187.802 181.711 187.392 181.741 186.868 181.8V180.959C187.342 181.005 187.766 181.032 188.14 181.041H189.247V178.833C188.755 178.879 188.131 178.956 187.374 179.065C187.278 178.733 187.137 178.421 186.95 178.129C187.219 178.138 187.417 178.143 187.545 178.143C189.145 178.143 190.5 177.906 191.612 177.432L192.05 178.156C192.132 178.298 192.166 178.38 192.152 178.402C192.139 178.421 192.111 178.43 192.07 178.43C192.029 178.43 191.975 178.423 191.906 178.409C191.852 178.396 191.776 178.389 191.681 178.389C191.494 178.389 191.261 178.418 190.983 178.478C190.815 178.505 190.582 178.553 190.286 178.621C190.154 178.648 190.061 178.667 190.006 178.676V181.041H191.065C191.339 181.032 191.742 181.005 192.275 180.959V181.8C191.733 181.741 191.334 181.711 191.079 181.711H190.006V182.483C190.863 183.185 191.608 183.812 192.241 184.363C191.991 184.568 191.785 184.819 191.626 185.115C191.302 184.6 190.762 184.053 190.006 183.475V188.629C190.015 188.966 190.042 189.424 190.088 190.003H189.165C189.22 189.461 189.247 189.012 189.247 188.656V183.475C188.714 184.623 188.121 185.749 187.47 186.852C187.132 186.656 186.782 186.507 186.417 186.407C187.369 185.573 188.276 184.008 189.138 181.711ZM200.39 183.406C202.518 182.212 203.983 180.271 204.785 177.582L205.729 177.951C205.865 177.997 205.929 178.038 205.92 178.074C205.929 178.111 205.865 178.172 205.729 178.259C205.533 178.35 205.355 178.587 205.195 178.97C204.234 181.052 202.935 182.741 201.299 184.035C201.03 183.785 200.727 183.575 200.39 183.406ZM201.47 189.176C204.045 188.31 205.346 186.289 205.373 183.112H204.45C204.095 183.112 203.707 183.142 203.288 183.201V182.333C203.68 182.388 204.067 182.415 204.45 182.415H209.03C209.545 182.415 210.021 182.388 210.459 182.333C210.395 182.789 210.356 183.222 210.343 183.632L210.22 186.209C210.174 187.681 209.978 188.581 209.632 188.909C209.345 189.31 208.575 189.545 207.321 189.613C207.198 189.258 207.03 188.898 206.815 188.533C207.157 188.565 207.476 188.581 207.772 188.581C208.379 188.581 208.761 188.499 208.921 188.335C209.217 188.157 209.374 187.519 209.393 186.421L209.536 183.112H206.275C206.171 186.38 204.849 188.668 202.311 189.976C202.078 189.693 201.798 189.426 201.47 189.176ZM208.565 177.151C209.267 179.79 210.892 181.782 213.439 183.126C213.12 183.285 212.785 183.52 212.435 183.83C210.238 182.244 208.654 180.059 207.684 177.274L208.565 177.151Z" fill="black" fill-opacity="0.7"/>
</g>
<g clip-path="url(#clip1)">
<path d="M330.394 161.044C330.338 161.12 330.262 161.177 330.173 161.21C330.085 161.242 329.989 161.247 329.898 161.225L326.508 160.438L325.342 163.671C325.308 163.761 325.249 163.839 325.173 163.898C325.097 163.956 325.005 163.991 324.91 164H324.858C324.769 164.001 324.682 163.977 324.606 163.931C324.53 163.886 324.468 163.82 324.427 163.742L320.991 157.405C320.412 157.463 320.064 157.457 319.458 157.392L316.042 163.709C315.999 163.79 315.935 163.856 315.857 163.902C315.778 163.948 315.688 163.97 315.598 163.968H315.559C315.465 163.959 315.376 163.922 315.301 163.864C315.227 163.806 315.171 163.728 315.14 163.638L313.987 160.393L310.59 161.161C310.497 161.18 310.4 161.173 310.312 161.14C310.223 161.106 310.145 161.049 310.087 160.974C310.03 160.896 309.995 160.804 309.988 160.708C309.982 160.612 310.003 160.516 310.049 160.431L313.935 153.391L313.902 153.321C313.496 152.418 313.287 151.439 313.29 150.449C313.296 146.597 316.423 143.48 320.27 143.48H320.302C324.169 143.493 327.288 146.636 327.269 150.5C327.269 151.514 327.043 152.456 326.631 153.379L330.446 160.502C330.53 160.677 330.517 160.89 330.394 161.044V161.044ZM315.262 155.153L313.277 158.722L314.824 158.373C314.865 158.364 314.908 158.37 314.945 158.39C314.982 158.41 315.01 158.444 315.024 158.483L315.546 159.954L317.357 156.65C316.5 156.179 315.952 155.856 315.262 155.153V155.153ZM320.283 145.732H320.263C319.016 145.732 317.82 146.227 316.937 147.107C316.054 147.988 315.556 149.183 315.552 150.43C315.54 153.03 317.647 155.16 320.244 155.173C321.495 155.174 322.694 154.679 323.581 153.798C324.468 152.916 324.969 151.719 324.974 150.469C324.98 149.218 324.489 148.017 323.609 147.129C322.729 146.241 321.533 145.738 320.283 145.732V145.732ZM325.291 155.147C324.491 155.947 323.84 156.334 322.86 156.876L324.935 160.696L325.535 159.018C325.555 158.965 325.593 158.921 325.643 158.894C325.693 158.867 325.75 158.858 325.806 158.87L327.565 159.27L325.291 155.147V155.147ZM302.592 153.321H311.009V155.521H302.592V153.321ZM302.592 149.436V147.242H311.009V149.436H302.592ZM302.592 135.079H319.87V137.279H302.592V135.079ZM302.592 141.157H314.902V143.358H302.592V141.157ZM325.033 131.187H298.687V159.399H308.122V161.593H298.842C297.553 161.593 296.496 160.509 296.496 159.167V131.426C296.496 130.091 297.547 129 298.842 129H324.877C326.167 129 327.223 130.084 327.223 131.426V141.796H325.033V131.187V131.187Z" fill="black" fill-opacity="0.65"/>
<path d="M300.882 182.709C302.386 182.007 303.495 181.299 304.211 180.583C304.252 180.943 304.332 181.264 304.45 181.547C303.293 182.235 302.304 182.921 301.483 183.604C301.351 183.295 301.151 182.996 300.882 182.709ZM304.341 179.052L303.808 179.838C302.978 179.195 302.167 178.724 301.374 178.423L301.805 177.671C302.73 178.099 303.575 178.56 304.341 179.052ZM307.055 178.478H311.676C312.013 178.478 312.378 178.45 312.77 178.396C312.619 178.655 312.375 179.075 312.038 179.653C311.769 180.123 311.569 180.469 311.437 180.692C311.14 180.551 310.819 180.467 310.473 180.439C310.76 180.075 311.049 179.646 311.341 179.154H308.907C308.907 179.182 308.896 179.223 308.873 179.277C308.855 179.35 308.841 179.416 308.832 179.476C309.999 181.276 311.409 182.335 313.063 182.654C312.69 182.878 312.378 183.158 312.127 183.495C310.641 182.661 309.409 181.586 308.429 180.269C307.795 181.476 306.811 182.463 305.476 183.229C305.362 183.014 305.104 182.748 304.703 182.429C306.348 181.991 307.435 180.9 307.964 179.154H306.583C306.282 179.519 305.904 179.92 305.448 180.357C305.138 180.143 304.835 179.988 304.539 179.893C305.697 179.1 306.476 178.152 306.877 177.049L307.882 177.315C308.014 177.356 308.08 177.4 308.08 177.445C308.071 177.491 307.996 177.532 307.854 177.568C307.668 177.637 307.508 177.773 307.376 177.979C307.267 178.156 307.16 178.323 307.055 178.478ZM301.36 189.312C304.787 188.916 306.501 187.437 306.501 184.876C306.501 184.757 306.499 184.655 306.494 184.568L307.615 184.767C307.729 184.785 307.795 184.821 307.813 184.876C307.823 184.935 307.779 184.992 307.684 185.047C307.451 185.179 307.276 185.509 307.157 186.038C306.856 187.998 305.188 189.408 302.153 190.27C301.966 189.941 301.702 189.622 301.36 189.312ZM303.035 183.256C303.299 183.32 303.641 183.347 304.061 183.338H309.885C310.34 183.338 310.705 183.311 310.979 183.256C310.91 183.534 310.881 183.912 310.89 184.391V186.558C310.89 186.94 310.919 187.332 310.979 187.733H310.021C310.081 187.341 310.11 186.94 310.11 186.53V184.008H303.903V186.77C303.903 187.28 303.924 187.667 303.965 187.932H303.035C303.094 187.567 303.124 187.171 303.124 186.742V184.363C303.124 183.949 303.094 183.579 303.035 183.256ZM307.109 187.918L307.506 187.132C309.028 187.701 310.646 188.41 312.359 189.258L311.819 190.167C310.101 189.105 308.531 188.355 307.109 187.918ZM316.393 178.259C316.648 178.263 317.001 178.266 317.452 178.266C320.984 178.266 323.623 177.926 325.368 177.247L326.093 178.115C326.179 178.215 326.223 178.293 326.223 178.348C326.223 178.366 326.218 178.382 326.209 178.396C326.186 178.437 326.134 178.457 326.052 178.457C326.011 178.457 325.956 178.45 325.888 178.437C325.81 178.418 325.712 178.409 325.594 178.409C325.407 178.409 325.159 178.432 324.849 178.478C323.131 178.76 320.61 178.977 317.288 179.127V182.723C317.297 184.158 317.19 185.302 316.967 186.154C316.753 187.029 316.32 188.014 315.668 189.107C315.331 188.921 314.952 188.77 314.533 188.656C315.773 187.722 316.42 185.632 316.475 182.388V179.612C316.488 179.138 316.461 178.687 316.393 178.259ZM321.868 184.165L323.003 184.302C323.153 184.32 323.233 184.359 323.242 184.418C323.251 184.464 323.194 184.536 323.071 184.637C322.894 184.76 322.786 185.061 322.75 185.539C322.741 187.713 321.15 189.205 317.979 190.017C317.837 189.679 317.603 189.367 317.274 189.08C319.056 188.93 320.312 188.467 321.041 187.692C321.624 187.073 321.916 186.184 321.916 185.026C321.916 184.753 321.9 184.466 321.868 184.165ZM318.45 180.398H321.629C321.656 180.107 321.67 179.893 321.67 179.756C321.674 179.692 321.677 179.61 321.677 179.51C321.677 179.405 321.674 179.282 321.67 179.141L322.907 179.346C322.998 179.364 323.044 179.394 323.044 179.435C323.035 179.471 322.982 179.517 322.887 179.571C322.796 179.644 322.709 179.747 322.627 179.879C322.577 180.084 322.534 180.257 322.497 180.398H326.407C326.676 180.408 326.959 180.38 327.255 180.316V181.185C326.94 181.116 326.646 181.087 326.373 181.096H322.401C322.315 181.602 322.217 182.126 322.107 182.668H325.02C325.316 182.677 325.637 182.647 325.983 182.579C325.92 182.898 325.892 183.226 325.901 183.563V186.277C325.892 186.615 325.92 187.002 325.983 187.439H325.033C325.097 187.057 325.124 186.66 325.115 186.25V183.365H319.852V186.421C319.842 186.877 319.87 187.264 319.934 187.583H318.983C319.047 187.255 319.075 186.863 319.065 186.407V183.646C319.075 183.272 319.047 182.916 318.983 182.579C319.339 182.647 319.685 182.677 320.022 182.668H321.253C321.394 182.089 321.488 181.565 321.533 181.096H318.491C318.204 181.087 317.883 181.116 317.527 181.185V180.316C317.819 180.38 318.127 180.408 318.45 180.398ZM322.791 187.583L323.365 186.783C324.96 187.658 326.318 188.447 327.439 189.148L326.838 189.976C325.617 188.987 324.268 188.189 322.791 187.583Z" fill="black" fill-opacity="0.7"/>
</g>
<defs>
<clipPath id="clip0">
<rect width="114" height="114" fill="white" transform="translate(143 107)"/>
</clipPath>
<clipPath id="clip1">
<rect width="114" height="114" fill="white" transform="translate(257 107)"/>
</clipPath>
</defs>
</svg>
