<svg width="45" height="45" viewBox="0 0 45 45" fill="none" xmlns="http://www.w3.org/2000/svg">
<circle cx="22.5" cy="22.5" r="22.5" fill="black" fill-opacity="0.4"/>
<path d="M24.3906 23.3984C25.099 23.6432 25.737 23.987 26.3047 24.4297C26.8776 24.8672 27.362 25.375 27.7578 25.9531C28.1589 26.5312 28.4661 27.1641 28.6797 27.8516C28.8932 28.5391 29 29.2552 29 30H28C28 29.1458 27.8464 28.3542 27.5391 27.625C27.237 26.8906 26.8177 26.2552 26.2812 25.7188C25.7448 25.1823 25.1094 24.763 24.375 24.4609C23.6458 24.1536 22.8542 24 22 24C21.4427 24 20.9062 24.0703 20.3906 24.2109C19.875 24.3516 19.3932 24.5521 18.9453 24.8125C18.5026 25.0677 18.099 25.3776 17.7344 25.7422C17.375 26.1016 17.0651 26.5052 16.8047 26.9531C16.5495 27.3958 16.3516 27.875 16.2109 28.3906C16.0703 28.9062 16 29.4427 16 30H15C15 29.25 15.1094 28.5339 15.3281 27.8516C15.5469 27.1641 15.8568 26.5339 16.2578 25.9609C16.6589 25.388 17.1432 24.8828 17.7109 24.4453C18.2839 24.0078 18.9219 23.6615 19.625 23.4062C19.2188 23.1875 18.8542 22.9219 18.5312 22.6094C18.2083 22.2969 17.9323 21.9505 17.7031 21.5703C17.4792 21.1849 17.3047 20.776 17.1797 20.3438C17.0599 19.9062 17 19.4583 17 19C17 18.3073 17.1302 17.6589 17.3906 17.0547C17.651 16.4453 18.0078 15.9141 18.4609 15.4609C18.9141 15.0078 19.4427 14.651 20.0469 14.3906C20.6562 14.1302 21.3073 14 22 14C22.6927 14 23.3411 14.1302 23.9453 14.3906C24.5547 14.651 25.0859 15.0078 25.5391 15.4609C25.9922 15.9141 26.349 16.4453 26.6094 17.0547C26.8698 17.6589 27 18.3073 27 19C27 19.4583 26.9375 19.9036 26.8125 20.3359C26.6927 20.7682 26.5182 21.1745 26.2891 21.5547C26.0651 21.9349 25.7917 22.2839 25.4688 22.6016C25.151 22.9141 24.7917 23.1797 24.3906 23.3984ZM18 19C18 19.5521 18.1042 20.0703 18.3125 20.5547C18.526 21.0391 18.8125 21.4635 19.1719 21.8281C19.5365 22.1875 19.9609 22.474 20.4453 22.6875C20.9297 22.8958 21.4479 23 22 23C22.5521 23 23.0703 22.8958 23.5547 22.6875C24.0391 22.474 24.4609 22.1875 24.8203 21.8281C25.1849 21.4635 25.4714 21.0391 25.6797 20.5547C25.8932 20.0703 26 19.5521 26 19C26 18.4479 25.8932 17.9297 25.6797 17.4453C25.4714 16.9609 25.1849 16.5391 24.8203 16.1797C24.4609 15.8151 24.0391 15.5286 23.5547 15.3203C23.0703 15.1068 22.5521 15 22 15C21.4479 15 20.9297 15.1068 20.4453 15.3203C19.9609 15.5286 19.5365 15.8151 19.1719 16.1797C18.8125 16.5391 18.526 16.9609 18.3125 17.4453C18.1042 17.9297 18 18.4479 18 19Z" fill="white"/>
</svg>
